<?xml version="1.0" encoding="UTF-8"?>
<svg version="1.1" xmlns="http://www.w3.org/2000/svg" width="512" height="512">
<path d="M0 0 C7.89390689 5.25182057 14.38609826 12.52253166 18.109375 21.33984375 C18.109375 22.32984375 18.109375 23.31984375 18.109375 24.33984375 C19.02312897 24.3309613 19.93688293 24.32207886 20.87832642 24.31292725 C29.50006616 24.23269636 38.12168007 24.17183612 46.74370766 24.13259506 C51.17614322 24.11174236 55.60826967 24.08346742 60.04052734 24.03808594 C64.31993004 23.99454498 68.59903588 23.97068921 72.87864304 23.96033478 C74.50930833 23.95295816 76.13995784 23.93855315 77.77049637 23.91692352 C80.05910277 23.88777866 82.34649104 23.88389219 84.63525391 23.88574219 C86.58717148 23.87241852 86.58717148 23.87241852 88.57852173 23.85882568 C93.72272741 24.55963528 96.6752964 26.6126576 99.96308899 30.57243347 C101.49481678 34.27039295 101.50524426 37.68392561 101.44995117 41.6184082 C101.45038925 42.43843826 101.45082733 43.25846832 101.45127869 44.10334778 C101.44919503 46.80351893 101.42588416 49.50306282 101.40234375 52.203125 C101.39674629 54.07927613 101.3924769 55.95543166 101.38948059 57.83158875 C101.37804366 62.76197483 101.34858633 67.69209445 101.31536865 72.62237549 C101.27923782 78.54198958 101.26550114 84.46169293 101.24800873 90.3813858 C101.21894835 99.36772359 101.16145311 108.35347709 101.109375 117.33984375 C116.289375 117.33984375 131.469375 117.33984375 147.109375 117.33984375 C147.08842773 113.91786621 147.06748047 110.49588867 147.04589844 106.97021484 C146.97963289 95.6666806 146.93523749 84.36313124 146.90212631 73.05945396 C146.88151573 66.20571353 146.85342427 59.35215733 146.80761719 52.49853516 C146.76343576 45.88497965 146.74023992 39.27156529 146.72986603 32.65785599 C146.72247269 30.13405977 146.70803538 27.61027408 146.68645477 25.0865593 C146.65743734 21.55275546 146.65341847 18.01974356 146.65527344 14.48583984 C146.64089233 13.44142731 146.62651123 12.39701477 146.61169434 11.32095337 C146.64572477 5.3334673 147.11418897 1.89758058 151.109375 -2.66015625 C156.33197357 -6.71646023 161.76277642 -6.43413169 168.109375 -5.66015625 C172.68897464 -3.49087221 175.04518106 -1.25163315 177.109375 3.33984375 C177.54165609 7.01781094 177.48802325 10.6730307 177.44995117 14.37231445 C177.45038925 15.48495163 177.45082733 16.59758881 177.45127869 17.74394226 C177.4491903 21.4180156 177.42585607 25.09163146 177.40234375 28.765625 C177.396748 31.31438447 177.3924778 33.86314716 177.38948059 36.41191101 C177.37920033 42.43255047 177.35556118 48.45299385 177.32543212 54.47355479 C177.29186863 61.32962352 177.27539723 68.18570019 177.26034582 75.04183066 C177.22901088 89.14127572 177.17400673 103.24051403 177.109375 117.33984375 C192.289375 117.33984375 207.469375 117.33984375 223.109375 117.33984375 C223.06296875 111.34570312 223.0165625 105.3515625 222.96875 99.17578125 C222.94830822 95.37498265 222.92905223 91.57425196 222.9140625 87.7734375 C222.89016488 81.74253233 222.86191493 75.71187042 222.80761719 69.68115234 C222.76410826 64.8182064 222.74022705 59.95552138 222.72986603 55.09239578 C222.72248373 53.23844928 222.70806772 51.38451682 222.68645477 49.53068161 C222.65735346 46.93078672 222.65342177 44.33196554 222.65527344 41.73193359 C222.64089233 40.96804321 222.62651123 40.20415283 222.61169434 39.41711426 C222.65158207 34.23017425 223.73814204 31.27027636 227.109375 27.33984375 C231.13245378 24.08318057 234.37884674 23.97324821 239.4699707 23.99926758 C240.19246506 23.9988295 240.91495941 23.99839142 241.65934753 23.99794006 C244.03489707 24.00002131 246.40973082 24.02332001 248.78515625 24.046875 C250.43710444 24.05247334 252.08905762 24.05674231 253.74101257 24.05973816 C258.07957823 24.07116824 262.41784047 24.10061945 266.75628662 24.1338501 C271.18709204 24.16459069 275.6179467 24.17825201 280.04882812 24.19335938 C288.735816 24.22549107 297.42255771 24.27666499 306.109375 24.33984375 C306.24802979 23.56874268 306.38668457 22.7976416 306.52954102 22.00317383 C308.60262193 12.48096762 316.32500453 5.51718449 324.109375 0.33984375 C335.36229927 -6.44024551 348.70932518 -7.57942396 361.4765625 -4.97265625 C373.38586203 -0.92416916 383.62929949 7.12009333 389.484375 18.27734375 C395.33533463 30.98092186 395.85694683 44.08620574 391.109375 57.33984375 C385.05794954 70.54824356 375.15355858 77.88175448 362.109375 83.33984375 C351.24598331 86.51853866 337.09557302 85.43395921 327.109375 80.33984375 C317.83690118 75.01443649 310.31842003 67.30753248 306.109375 57.33984375 C306.109375 56.34984375 306.109375 55.35984375 306.109375 54.33984375 C288.949375 54.33984375 271.789375 54.33984375 254.109375 54.33984375 C254.109375 75.12984375 254.109375 95.91984375 254.109375 117.33984375 C264.69987954 117.18198878 264.69987954 117.18198878 275.28955078 116.97949219 C276.62791664 116.96779788 277.96629684 116.95760781 279.3046875 116.94921875 C279.986521 116.92875488 280.66835449 116.90829102 281.37084961 116.88720703 C287.30259964 116.88292263 290.55939688 119.14158675 294.921875 122.90234375 C297.99799602 126.62606919 297.23578768 131.40047851 297.20703125 135.9453125 C297.20490883 137.2041198 297.20490883 137.2041198 297.20274353 138.48835754 C297.19714715 141.16805591 297.18459535 143.84767065 297.171875 146.52734375 C297.16685953 148.34439983 297.16229671 150.16145723 297.15820312 151.97851562 C297.14717891 156.43232388 297.12991678 160.88606964 297.109375 165.33984375 C297.87279205 165.3309613 298.63620911 165.32207886 299.42276001 165.31292725 C306.63176584 165.23264177 313.84055363 165.17180904 321.04989052 165.13259506 C324.7559485 165.1117566 328.4616358 165.08350872 332.16748047 165.03808594 C335.74663286 164.99449263 339.32542964 164.97067852 342.90482712 164.96033478 C344.26755747 164.9529674 345.63026927 164.93858037 346.99284744 164.91692352 C360.25135577 164.71465223 360.25135577 164.71465223 365.109375 169.33984375 C369.16567898 174.56244232 368.88335044 179.99324517 368.109375 186.33984375 C365.92642621 190.9482912 363.62104656 193.09121391 359.109375 195.33984375 C356.15434265 195.7006073 356.15434265 195.7006073 352.8503418 195.68041992 C350.98897835 195.68008003 350.98897835 195.68008003 349.0900116 195.67973328 C347.74620193 195.66441587 346.40239599 195.64876792 345.05859375 195.6328125 C343.6756893 195.62721273 342.29277888 195.62294443 340.90986633 195.61994934 C337.28147769 195.60853039 333.65345301 195.57908925 330.02520752 195.5458374 C326.31828828 195.51507248 322.61130812 195.50126563 318.90429688 195.48632812 C311.63900215 195.45581023 304.37470507 195.39708446 297.109375 195.33984375 C297.109375 208.53984375 297.109375 221.73984375 297.109375 235.33984375 C300.4707666 235.31889648 303.8321582 235.29794922 307.29541016 235.27636719 C318.39937606 235.21009876 329.50335068 235.16590885 340.60746193 235.13259506 C347.34013588 235.11198534 354.07262224 235.08389557 360.80517578 235.03808594 C367.30201896 234.99390126 373.79874042 234.970708 380.29572678 234.96033478 C382.77486616 234.95294199 385.25399484 234.93850574 387.7330513 234.91692352 C391.20459319 234.88790192 394.67532904 234.88388739 398.14697266 234.88574219 C399.68553925 234.86417053 399.68553925 234.86417053 401.25518799 234.84216309 C407.20095168 234.8765546 410.57720146 235.38582296 415.109375 239.33984375 C419.16567898 244.56244232 418.88335044 249.99324517 418.109375 256.33984375 C415.93996833 260.91970228 413.69769486 263.26926647 409.109375 265.33984375 C405.49239812 265.7710164 401.89905284 265.71854737 398.26049805 265.68041992 C397.16736801 265.680858 396.07423798 265.68129608 394.94798279 265.68174744 C391.3388374 265.67965929 387.73015789 265.65632622 384.12109375 265.6328125 C381.61717482 265.62721666 379.11325261 265.62294651 376.60932922 265.61994934 C370.69495392 265.60966967 364.78072783 265.58603117 358.86642915 265.55590087 C351.47022727 265.51904125 344.07400462 265.50295799 336.67773438 265.48632812 C323.48817994 265.45416185 310.29882509 265.40139262 297.109375 265.33984375 C297.109375 278.53984375 297.109375 291.73984375 297.109375 305.33984375 C301.51539063 305.2934375 305.92140625 305.24703125 310.4609375 305.19921875 C313.98329719 305.17347865 317.50563016 305.15179329 321.0280304 305.13284302 C324.74137371 305.1117564 328.45434936 305.08359803 332.16748047 305.03808594 C335.74663286 304.99449263 339.32542964 304.97067852 342.90482712 304.96033478 C344.26755747 304.9529674 345.63026927 304.93858037 346.99284744 304.91692352 C360.25135577 304.71465223 360.25135577 304.71465223 365.109375 309.33984375 C369.16567898 314.56244232 368.88335044 319.99324517 368.109375 326.33984375 C365.92642621 330.9482912 363.62104656 333.09121391 359.109375 335.33984375 C356.15434265 335.7006073 356.15434265 335.7006073 352.8503418 335.68041992 C350.98897835 335.68008003 350.98897835 335.68008003 349.0900116 335.67973328 C347.74620193 335.66441587 346.40239599 335.64876792 345.05859375 335.6328125 C343.6756893 335.62721273 342.29277888 335.62294443 340.90986633 335.61994934 C337.28147769 335.60853039 333.65345301 335.57908925 330.02520752 335.5458374 C326.31828738 335.51507247 322.61130806 335.50143034 318.90429688 335.48632812 C311.63915753 335.45421616 304.37431739 335.40305622 297.109375 335.33984375 C297.12508545 336.46479248 297.1407959 337.58974121 297.15698242 338.7487793 C297.21138716 342.9326254 297.24576336 347.11644037 297.27416992 351.30053711 C297.28923255 353.10950992 297.30968677 354.91844635 297.33569336 356.72729492 C297.3721882 359.3313089 297.38912657 361.93483895 297.40234375 364.5390625 C297.41782761 365.34445969 297.43331146 366.14985687 297.44926453 366.97966003 C297.45064622 371.61640552 297.08037519 374.55684381 294.109375 378.33984375 C289.10564653 382.73336143 286.21047558 383.48496046 279.6953125 383.4375 C279.04860596 383.43649292 278.40189941 383.43548584 277.7355957 383.43444824 C275.31850411 383.42921399 272.90143779 383.41525273 270.484375 383.40234375 C265.080625 383.38171875 259.676875 383.36109375 254.109375 383.33984375 C254.109375 404.12984375 254.109375 424.91984375 254.109375 446.33984375 C271.269375 446.33984375 288.429375 446.33984375 306.109375 446.33984375 C306.439375 444.68984375 306.769375 443.03984375 307.109375 441.33984375 C312.33020756 430.65869091 320.94457145 422.57115766 332.109375 418.33984375 C342.75815161 414.70688659 356.38226997 414.49389779 366.76171875 419.08203125 C379.66957704 425.99772238 388.06799994 434.66260138 392.921875 448.6875 C396.04972869 460.6558846 394.48713097 473.73905733 388.484375 484.52734375 C381.34798703 495.38857812 371.07475648 503.61780451 358.109375 506.33984375 C343.26020196 507.64889658 330.74102958 506.01384431 318.66015625 496.6953125 C313.47641629 491.90848984 308.87149112 485.88097447 306.109375 479.33984375 C306.109375 478.34984375 306.109375 477.35984375 306.109375 476.33984375 C305.19562103 476.3487262 304.28186707 476.35760864 303.34042358 476.36676025 C294.71868384 476.44699114 286.09706993 476.50785138 277.47504234 476.54709244 C273.04260678 476.56794514 268.61048033 476.59622008 264.17822266 476.64160156 C259.89881996 476.68514252 255.61971412 476.70899829 251.34010696 476.71935272 C249.70944167 476.72672934 248.07879216 476.74113435 246.44825363 476.76276398 C244.15964723 476.79190884 241.87225896 476.79579531 239.58349609 476.79394531 C238.28221771 476.80282776 236.98093933 476.81171021 235.64022827 476.82086182 C230.49602259 476.12005222 227.5434536 474.0670299 224.25566101 470.10725403 C222.72393322 466.40929455 222.71350574 462.99576189 222.76879883 459.0612793 C222.76836075 458.24124924 222.76792267 457.42121918 222.76747131 456.57633972 C222.76955497 453.87616857 222.79286584 451.17662468 222.81640625 448.4765625 C222.82200371 446.60041137 222.8262731 444.72425584 222.82926941 442.84809875 C222.84070634 437.91771267 222.87016367 432.98759305 222.90338135 428.05731201 C222.93951218 422.13769792 222.95324886 416.21799457 222.97074127 410.2983017 C222.99980165 401.31196391 223.05729689 392.32621041 223.109375 383.33984375 C207.929375 383.33984375 192.749375 383.33984375 177.109375 383.33984375 C177.13032227 386.76182129 177.15126953 390.18379883 177.17285156 393.70947266 C177.23911711 405.0130069 177.28351251 416.31655626 177.31662369 427.62023354 C177.33723427 434.47397397 177.36532573 441.32753017 177.41113281 448.18115234 C177.45531424 454.79470785 177.47851008 461.40812221 177.48888397 468.02183151 C177.49627731 470.54562773 177.51071462 473.06941342 177.53229523 475.5931282 C177.56131266 479.12693204 177.56533153 482.65994394 177.56347656 486.19384766 C177.58504822 487.76046646 177.58504822 487.76046646 177.60705566 489.35873413 C177.57302523 495.3462202 177.10456103 498.78210692 173.109375 503.33984375 C167.88677643 507.39614773 162.45597358 507.11381919 156.109375 506.33984375 C151.52977536 504.17055971 149.17356894 501.93132065 147.109375 497.33984375 C146.67709391 493.66187656 146.73072675 490.0066568 146.76879883 486.30737305 C146.76836075 485.19473587 146.76792267 484.08209869 146.76747131 482.93574524 C146.7695597 479.2616719 146.79289393 475.58805604 146.81640625 471.9140625 C146.822002 469.36530303 146.8262722 466.81654034 146.82926941 464.26777649 C146.83954967 458.24713703 146.86318882 452.22669365 146.89331788 446.20613271 C146.92688137 439.35006398 146.94335277 432.49398731 146.95840418 425.63785684 C146.98973912 411.53841178 147.04474327 397.43917347 147.109375 383.33984375 C131.929375 383.33984375 116.749375 383.33984375 101.109375 383.33984375 C101.15578125 389.33398438 101.2021875 395.328125 101.25 401.50390625 C101.27044178 405.30470485 101.28969777 409.10543554 101.3046875 412.90625 C101.32858512 418.93715517 101.35683507 424.96781708 101.41113281 430.99853516 C101.45464174 435.8614811 101.47852295 440.72416612 101.48888397 445.58729172 C101.49626627 447.44123822 101.51068228 449.29517068 101.53229523 451.14900589 C101.56139654 453.74890078 101.56532823 456.34772196 101.56347656 458.94775391 C101.57785767 459.71164429 101.59223877 460.47553467 101.60705566 461.26257324 C101.56716793 466.44951325 100.48060796 469.40941114 97.109375 473.33984375 C93.08629622 476.59650693 89.83990326 476.70643929 84.7487793 476.68041992 C84.02628494 476.680858 83.30379059 476.68129608 82.55940247 476.68174744 C80.18385293 476.67966619 77.80901918 476.65636749 75.43359375 476.6328125 C73.78164556 476.62721416 72.12969238 476.62294519 70.47773743 476.61994934 C66.13917177 476.60851926 61.80090953 476.57906805 57.46246338 476.5458374 C53.03165796 476.51509681 48.6008033 476.50143549 44.16992188 476.48632812 C35.482934 476.45419643 26.79619229 476.40302251 18.109375 476.33984375 C17.97055908 477.11779297 17.83174316 477.89574219 17.6887207 478.69726562 C16.69304062 483.23887593 13.7800671 486.61043739 11.109375 490.33984375 C10.531875 491.20609375 9.954375 492.07234375 9.359375 492.96484375 C0.80188592 501.99774889 -9.64245148 506.35213452 -21.9519043 506.81030273 C-36.54867842 506.98269997 -47.27239573 502.57916479 -58.078125 492.71484375 C-66.3171785 484.11399549 -69.82489273 473.19202708 -70.203125 461.52734375 C-69.89889459 447.44326556 -64.73926281 436.18008325 -54.59765625 426.453125 C-42.44556281 416.96642579 -29.84323716 415.24168263 -14.890625 416.33984375 C-3.38111786 418.33872939 5.78379139 424.79403362 12.671875 434.08984375 C18.109375 442.00304541 18.109375 442.00304541 18.109375 446.33984375 C35.269375 446.33984375 52.429375 446.33984375 70.109375 446.33984375 C70.109375 425.54984375 70.109375 404.75984375 70.109375 383.33984375 C59.51887046 383.49769872 59.51887046 383.49769872 48.92919922 383.70019531 C47.59083336 383.71188962 46.25245316 383.72207969 44.9140625 383.73046875 C44.232229 383.75093262 43.55039551 383.77139648 42.84790039 383.79248047 C36.91615036 383.79676487 33.65935312 381.53810075 29.296875 377.77734375 C26.22075398 374.05361831 26.98296232 369.27920899 27.01171875 364.734375 C27.0131337 363.89517014 27.01454865 363.05596527 27.01600647 362.19132996 C27.02160285 359.51163159 27.03415465 356.83201685 27.046875 354.15234375 C27.05189047 352.33528767 27.05645329 350.51823027 27.06054688 348.70117188 C27.07157109 344.24736362 27.08883322 339.79361786 27.109375 335.33984375 C26.34595795 335.3487262 25.58254089 335.35760864 24.79598999 335.36676025 C17.58698416 335.44704573 10.37819637 335.50787846 3.16885948 335.54709244 C-0.5371985 335.5679309 -4.2428858 335.59617878 -7.94873047 335.64160156 C-11.52788286 335.68519487 -15.10667964 335.70900898 -18.68607712 335.71935272 C-20.04880747 335.7267201 -21.41151927 335.74110713 -22.77409744 335.76276398 C-36.03260577 335.96503527 -36.03260577 335.96503527 -40.890625 331.33984375 C-44.94692898 326.11724518 -44.66460044 320.68644233 -43.890625 314.33984375 C-41.70767621 309.7313963 -39.40229656 307.58847359 -34.890625 305.33984375 C-31.93559265 304.9790802 -31.93559265 304.9790802 -28.6315918 304.99926758 C-26.77022835 304.99960747 -26.77022835 304.99960747 -24.8712616 304.99995422 C-23.52745193 305.01527163 -22.18364599 305.03091958 -20.83984375 305.046875 C-19.4569393 305.05247477 -18.07402888 305.05674307 -16.69111633 305.05973816 C-13.06272769 305.07115711 -9.43470301 305.10059825 -5.80645752 305.1338501 C-2.09953828 305.16461502 1.60744188 305.17842187 5.31445312 305.19335938 C12.57974785 305.22387727 19.84404493 305.28260304 27.109375 305.33984375 C27.109375 292.13984375 27.109375 278.93984375 27.109375 265.33984375 C22.0672876 265.37126465 22.0672876 265.37126465 16.92333984 265.40332031 C5.81937394 265.46958874 -5.28460068 265.51377865 -16.38871193 265.54709244 C-23.12138588 265.56770216 -29.85387224 265.59579193 -36.58642578 265.64160156 C-43.08326896 265.68578624 -49.57999042 265.7089795 -56.07697678 265.71935272 C-58.55611616 265.72674551 -61.03524484 265.74118176 -63.5143013 265.76276398 C-66.98584319 265.79178558 -70.45657904 265.79580011 -73.92822266 265.79394531 C-75.46678925 265.81551697 -75.46678925 265.81551697 -77.03643799 265.83752441 C-82.98220168 265.8031329 -86.35845146 265.29386454 -90.890625 261.33984375 C-94.94692898 256.11724518 -94.66460044 250.68644233 -93.890625 244.33984375 C-91.72121833 239.75998522 -89.47894486 237.41042103 -84.890625 235.33984375 C-81.27364812 234.9086711 -77.68030284 234.96114013 -74.04174805 234.99926758 C-72.94861801 234.9988295 -71.85548798 234.99839142 -70.72923279 234.99794006 C-67.1200874 235.00002821 -63.51140789 235.02336128 -59.90234375 235.046875 C-57.39842482 235.05247084 -54.89450261 235.05674099 -52.39057922 235.05973816 C-46.47620392 235.07001783 -40.56197783 235.09365633 -34.64767915 235.12378663 C-27.25147727 235.16064625 -19.85525462 235.17672951 -12.45898438 235.19335938 C0.73057006 235.22552565 13.91992491 235.27829488 27.109375 235.33984375 C27.109375 222.13984375 27.109375 208.93984375 27.109375 195.33984375 C22.70335938 195.38625 18.29734375 195.43265625 13.7578125 195.48046875 C10.23545281 195.50620885 6.71311984 195.52789421 3.1907196 195.54684448 C-0.52262371 195.5679311 -4.23559936 195.59608947 -7.94873047 195.64160156 C-11.52788286 195.68519487 -15.10667964 195.70900898 -18.68607712 195.71935272 C-20.04880747 195.7267201 -21.41151927 195.74110713 -22.77409744 195.76276398 C-36.03260577 195.96503527 -36.03260577 195.96503527 -40.890625 191.33984375 C-44.94692898 186.11724518 -44.66460044 180.68644233 -43.890625 174.33984375 C-41.70767621 169.7313963 -39.40229656 167.58847359 -34.890625 165.33984375 C-31.93559265 164.9790802 -31.93559265 164.9790802 -28.6315918 164.99926758 C-26.77022835 164.99960747 -26.77022835 164.99960747 -24.8712616 164.99995422 C-23.52745193 165.01527163 -22.18364599 165.03091958 -20.83984375 165.046875 C-19.4569393 165.05247477 -18.07402888 165.05674307 -16.69111633 165.05973816 C-13.06272769 165.07115711 -9.43470301 165.10059825 -5.80645752 165.1338501 C-2.09953738 165.16461503 1.60744194 165.17825716 5.31445312 165.19335938 C12.57959247 165.22547134 19.84443261 165.27663128 27.109375 165.33984375 C27.09366455 164.21489502 27.0779541 163.08994629 27.06176758 161.9309082 C27.00736284 157.7470621 26.97298664 153.56324713 26.94458008 149.37915039 C26.92951745 147.57017758 26.90906323 145.76124115 26.88305664 143.95239258 C26.8465618 141.3483786 26.82962343 138.74484855 26.81640625 136.140625 C26.80092239 135.33522781 26.78543854 134.52983063 26.76948547 133.70002747 C26.76810378 129.06328198 27.13837481 126.12284369 30.109375 122.33984375 C35.11310347 117.94632607 38.00827442 117.19472704 44.5234375 117.2421875 C45.17014404 117.24319458 45.81685059 117.24420166 46.4831543 117.24523926 C48.90024589 117.25047351 51.31731221 117.26443477 53.734375 117.27734375 C59.138125 117.29796875 64.541875 117.31859375 70.109375 117.33984375 C70.109375 96.54984375 70.109375 75.75984375 70.109375 54.33984375 C52.949375 54.33984375 35.789375 54.33984375 18.109375 54.33984375 C17.779375 55.98984375 17.449375 57.63984375 17.109375 59.33984375 C15.34785342 62.50516253 13.21720109 65.39643443 11.109375 68.33984375 C10.531875 69.20609375 9.954375 70.07234375 9.359375 70.96484375 C0.80188592 79.99774889 -9.64245148 84.35213452 -21.9519043 84.81030273 C-36.54867842 84.98269997 -47.27239573 80.57916479 -58.078125 70.71484375 C-66.3171785 62.11399549 -69.82489273 51.19202708 -70.203125 39.52734375 C-69.89889459 25.44326556 -64.73926281 14.18008325 -54.59765625 4.453125 C-38.97490083 -7.74299431 -17.33039371 -9.95326666 0 0 Z M98.359375 198.02734375 C87.00582638 211.9844248 86.79430637 227.86018048 86.84375 244.98828125 C86.842399 246.6568711 86.84045487 248.32546056 86.83795166 249.99404907 C86.83502572 253.46498418 86.83921896 256.93581538 86.84863281 260.40673828 C86.86007964 264.84156656 86.85341894 269.27615407 86.84148788 273.71097374 C86.83424616 277.1460246 86.83656691 280.58101871 86.84174347 284.01607132 C86.84307079 285.65144505 86.84146464 287.28682405 86.83678436 288.92219162 C86.83167485 291.20656693 86.83948852 293.49055566 86.85058594 295.77490234 C86.85217712 297.07027924 86.85376831 298.36565613 86.85540771 299.70028687 C87.22683585 305.02315283 88.01043727 309.03847012 91.484375 313.15234375 C95.70799433 316.67202653 98.34362136 317.81498145 104.015625 317.65625 C108.69792652 316.94866339 112.0909136 314.66384357 114.984375 310.90234375 C117.10964943 306.06144089 117.22935771 301.53578092 117.20703125 296.2890625 C117.20453369 295.08338623 117.20203613 293.87770996 117.19946289 292.63549805 C117.19035889 291.11480713 117.18125488 289.59411621 117.171875 288.02734375 C117.15125 283.18046875 117.130625 278.33359375 117.109375 273.33984375 C127.009375 273.33984375 136.909375 273.33984375 147.109375 273.33984375 C146.984375 287.90234375 146.984375 287.90234375 146.92919922 292.45532227 C146.9242041 293.65600342 146.91920898 294.85668457 146.9140625 296.09375 C146.90358887 297.31392822 146.89311523 298.53410645 146.88232422 299.79125977 C147.2207888 305.08113358 148.03537068 309.06799653 151.484375 313.15234375 C155.70799433 316.67202653 158.34362136 317.81498145 164.015625 317.65625 C168.69792652 316.94866339 172.0909136 314.66384357 174.984375 310.90234375 C177.1445651 305.98191075 177.2390004 301.33458459 177.25463867 296.00195312 C177.25799728 295.28083344 177.2613559 294.55971375 177.26481628 293.81674194 C177.27429197 291.43900818 177.27626828 289.06134521 177.27734375 286.68359375 C177.28056077 285.01794405 177.28392517 283.35229463 177.28742981 281.68664551 C177.29341414 278.19310859 177.29527063 274.69959637 177.29467773 271.20605469 C177.29457663 266.76263634 177.30817789 262.31937967 177.32544994 257.87599945 C177.33665913 254.43212175 177.33859416 250.98828188 177.33806801 247.54438782 C177.3392367 245.9083857 177.34359487 244.27238223 177.35140038 242.63639832 C177.43131697 224.14229364 175.94976243 208.53822963 162.52734375 194.53125 C152.55982863 185.49768621 141.29073526 182.51129882 128.078125 182.99609375 C116.19711913 184.02515725 106.5181996 189.44004696 98.359375 198.02734375 Z M209.234375 189.77734375 C206.70028012 195.54944875 206.96119383 201.33243038 206.96411133 207.52685547 C206.96075272 208.55022003 206.9573941 209.57358459 206.95393372 210.62796021 C206.94444049 214.00849626 206.94248144 217.3889827 206.94140625 220.76953125 C206.93819265 223.12216207 206.9348285 225.47479269 206.93132019 227.8274231 C206.92533308 232.7584886 206.92347987 237.68953659 206.92407227 242.62060547 C206.92417389 248.93442785 206.91051958 255.24813778 206.89330006 261.56193352 C206.88217371 266.42099522 206.88015325 271.28002979 206.88068199 276.13910294 C206.87950292 278.46666985 206.87508522 280.79423748 206.86734962 283.12179184 C206.85753668 286.37928871 206.86043302 289.63654206 206.86645508 292.89404297 C206.86083557 293.8521991 206.85521606 294.81035522 206.84942627 295.79754639 C206.88032175 302.38470114 207.07259913 307.92787232 211.484375 313.15234375 C215.70799433 316.67202653 218.34362136 317.81498145 224.015625 317.65625 C228.69792652 316.94866339 232.0909136 314.66384357 234.984375 310.90234375 C237.51846988 305.13023875 237.25755617 299.34725712 237.25463867 293.15283203 C237.25799728 292.12946747 237.2613559 291.10610291 237.26481628 290.05172729 C237.27430951 286.67119124 237.27626856 283.2907048 237.27734375 279.91015625 C237.28055735 277.55752543 237.2839215 275.20489481 237.28742981 272.8522644 C237.29341692 267.9211989 237.29527013 262.99015091 237.29467773 258.05908203 C237.29457611 251.74525965 237.30823042 245.43154972 237.32544994 239.11775398 C237.33657629 234.25869228 237.33859675 229.39965771 237.33806801 224.54058456 C237.33924708 222.21301765 237.34366478 219.88545002 237.35140038 217.55789566 C237.36121332 214.30039879 237.35831698 211.04314544 237.35229492 207.78564453 C237.35791443 206.8274884 237.36353394 205.86933228 237.36932373 204.88214111 C237.33842825 198.29498636 237.14615087 192.75181518 232.734375 187.52734375 C228.51075567 184.00766097 225.87512864 182.86470605 220.203125 183.0234375 C215.52082348 183.73102411 212.1278364 186.01584393 209.234375 189.77734375 Z " fill="#4a4a4a" transform="translate(93.890625,5.66015625)"/>
<path d="M0 0 C4.65702344 2.45552145 8.31667974 4.95003921 10 10 C10.08178114 11.70016844 10.10749501 13.40336297 10.09765625 15.10546875 C10.09515869 15.99129639 10.09266113 16.87712402 10.09008789 17.78979492 C10.08098389 18.9110376 10.07187988 20.03228027 10.0625 21.1875 C10.041875 24.755625 10.02125 28.32375 10 32 C0.1 32 -9.8 32 -20 32 C-20.061875 28.473125 -20.12375 24.94625 -20.1875 21.3125 C-20.21481201 20.20946533 -20.24212402 19.10643066 -20.27026367 17.9699707 C-20.34719313 8.92620995 -20.34719313 8.92620995 -17 5 C-11.37317905 0.05937673 -7.40522908 -0.84176183 0 0 Z " fill="#4a4a4a" transform="translate(231,218)"/>
</svg>
