<?xml version="1.0" encoding="UTF-8"?>
<svg version="1.1" xmlns="http://www.w3.org/2000/svg" width="512" height="511">
<path d="M0 0 C1.50366163 1.26649874 3.00418683 2.53674128 4.5 3.8125 C5.510625 4.575625 6.52125 5.33875 7.5625 6.125 C12.07839978 10.25656788 15.75763567 14.98216285 19.5 19.8125 C20.12261719 20.60785156 20.74523437 21.40320313 21.38671875 22.22265625 C36.78939011 42.95569028 41.01485156 67.58477366 40.5 92.8125 C41.72074219 92.76609375 42.94148438 92.7196875 44.19921875 92.671875 C61.97125614 92.19751948 77.152733 96.11917909 90.4375 108.62109375 C103.18560036 122.16595038 107.15651937 137.52874916 106.8125 155.59765625 C106.25425992 168.53254405 100.50875474 181.36892624 91.66015625 190.83984375 C81.31420784 200.28777132 68.07614708 207.92172708 53.73561859 207.94392776 C52.33238633 207.94968948 52.33238633 207.94968948 50.90080595 207.9555676 C49.88146357 207.95470112 48.86212119 207.95383463 47.81188965 207.95294189 C46.72239785 207.95591302 45.63290605 207.95888414 44.51039934 207.9619453 C40.85262827 207.97063013 37.19488994 207.97214038 33.53710938 207.97363281 C30.91710337 207.97826122 28.29709805 207.98328591 25.67709351 207.98867798 C18.55277868 208.00224869 11.4284695 208.00828447 4.30414391 208.01268864 C-0.14822636 208.01545404 -4.60059446 208.01969202 -9.05296326 208.02419281 C-21.3905346 208.03638542 -33.72810422 208.04668372 -46.06568146 208.0500679 C-47.24974231 208.05039725 -47.24974231 208.05039725 -48.45772359 208.05073325 C-49.64456047 208.05106067 -49.64456047 208.05106067 -50.85537386 208.0513947 C-52.45859559 208.05183816 -54.06181733 208.05228472 -55.66503906 208.05273438 C-56.46028628 208.0529558 -57.25553349 208.05317723 -58.07487911 208.05340537 C-70.9471258 208.05734939 -83.81931575 208.07479134 -96.69154054 208.0980939 C-109.92081903 208.12184855 -123.15006911 208.13427168 -136.37936926 208.13543582 C-143.80155369 208.13635044 -151.22366424 208.14204862 -158.64582825 208.16025543 C-164.96909667 208.17571227 -171.29226839 208.18074427 -177.61555213 208.17251733 C-180.83745458 208.16863001 -184.05912343 208.17110221 -187.28100967 208.18357468 C-217.06377257 208.29206763 -217.06377257 208.29206763 -230.5625 201.3125 C-231.56301392 200.80299805 -231.56301392 200.80299805 -232.58374023 200.28320312 C-239.59247949 196.52106681 -245.01643976 191.50631945 -250.5 185.8125 C-251.51320312 184.82830078 -251.51320312 184.82830078 -252.546875 183.82421875 C-264.45984289 171.515909 -269.18558255 153.25082206 -268.97070312 136.53320312 C-268.19026804 117.25479597 -260.0916892 100.10021134 -246.265625 86.63671875 C-230.34978201 72.88393496 -211.74791282 68.59476604 -191.16308594 69.57910156 C-185.02820143 70.11677571 -179.30335079 71.79711039 -173.5 73.8125 C-172.015 74.3075 -172.015 74.3075 -170.5 74.8125 C-170.54125 73.513125 -170.5825 72.21375 -170.625 70.875 C-170.61729583 65.94432923 -169.78978726 61.55537907 -168.5 56.8125 C-168.27852295 55.99434814 -168.0570459 55.17619629 -167.82885742 54.33325195 C-159.75488051 26.06752042 -140.93907096 4.1573923 -115.5 -10.1875 C-79.07943889 -30.00662737 -32.39297409 -25.71101531 0 0 Z " fill="#4a4a4a" transform="translate(405.5,240.1875)"/>
<path d="M0 0 C3.56534479 3.90732684 5.24377837 7.32182616 5.5625 12.625 C5.27401389 17.05857595 3.90314334 19.57577965 1 23 C0.35804688 23.79470703 0.35804688 23.79470703 -0.296875 24.60546875 C-23.50572456 50.74533282 -71.70219101 56.52874016 -104 60 C-104.83370117 60.0913623 -105.66740234 60.18272461 -106.52636719 60.27685547 C-114.87497362 61.11798148 -123.24201526 61.38807779 -131.625 61.625 C-132.39489258 61.64679321 -133.16478516 61.66858643 -133.95800781 61.69104004 C-182.54214122 63.00405687 -249.36326176 60.45946529 -288.08984375 26.1484375 C-292.24314312 22.15651377 -295.2385166 18.7939328 -295.5 12.8125 C-295.30839943 6.95910254 -292.89768562 3.24332944 -289 -1 C-228.40669272 -56.21352766 -84.31520266 -48.51314354 0 0 Z " fill="#4a4a4a" transform="translate(295,100)"/>
<path d="M0 0 C1.64977089 0.82906609 1.64977089 0.82906609 3.33287048 1.67488098 C4.78951477 2.4054572 6.24618633 3.13597903 7.70288086 3.86645508 C8.42617332 4.23011421 9.14946579 4.59377335 9.89467621 4.96845245 C14.71665535 7.38472561 19.55163465 9.68589133 24.5625 11.6875 C25.26826172 11.97165771 25.97402344 12.25581543 26.70117188 12.54858398 C49.97919179 21.79977015 74.21367313 26.79797737 99 30 C99.86415527 30.11327637 100.72831055 30.22655273 101.61865234 30.34326172 C163.97571908 38.19214286 235.5285869 33.32415782 292 4 C294.64 2.68 297.28 1.36 300 0 C300 12.54 300 25.08 300 38 C296.04 39.65 292.08 41.3 288 43 C265.09068786 54.05273831 245.67074038 68.0787934 230.625 88.875 C230.23554199 89.40456299 229.84608398 89.93412598 229.44482422 90.47973633 C227.0923276 93.85216597 225.58397909 96.99479685 224.33203125 100.91796875 C222.42192179 106.39472438 220.62144314 111.27258309 216 115 C206.51657785 118.48595688 196.0419845 118.58399628 186.0368042 118.91793823 C182.70716467 119.05208765 179.38624518 119.3070808 176.0625 119.54296875 C167.58426602 120.09974849 159.11941558 120.19983342 150.625 120.1875 C149.84553009 120.18689575 149.06606018 120.1862915 148.26296997 120.18566895 C101.74535931 120.08864016 44.82701056 115.4629568 7.0078125 85.1796875 C6.34523438 84.46039063 5.68265625 83.74109375 5 83 C4.58002243 82.55165802 4.16004486 82.10331604 3.7273407 81.64138794 C-1.69791848 74.65257682 -0.62624954 66.19252397 -0.48828125 57.8125 C-0.47894356 56.14242618 -0.47183197 54.47233857 -0.46684265 52.80224609 C-0.44784778 48.42894986 -0.39881343 44.05649782 -0.34332275 39.68353271 C-0.29196685 35.21231503 -0.2692939 30.74095953 -0.24414062 26.26953125 C-0.19068594 17.51263553 -0.10546623 8.75642309 0 0 Z " fill="#4a4a4a" transform="translate(0,157)"/>
<path d="M0 0 C1.01297653 0.54591293 2.02595306 1.09182587 3.06962585 1.65428162 C4.4209552 2.37956848 5.77234278 3.10474684 7.1237793 3.82983398 C7.7887719 4.1885836 8.4537645 4.54733322 9.13890839 4.91695404 C41.52040752 22.26451792 78.7212482 29.0239547 115 32 C116.59473145 32.13317627 116.59473145 32.13317627 118.22167969 32.26904297 C125.47921166 32.87129828 132.73856884 33.4468328 140 34 C139.61183105 34.45238037 139.22366211 34.90476074 138.82373047 35.37084961 C137.74096343 36.63329781 136.65879851 37.89626262 135.57714844 39.15966797 C134.36960581 40.56871694 133.15828713 41.97453068 131.9453125 43.37890625 C113.63654977 65.34156369 108.69230442 90.0898046 108 118 C99.20596391 117.47735935 90.6553402 116.44590696 82 114.8125 C80.83299561 114.59327881 79.66599121 114.37405762 78.46362305 114.14819336 C52.09306435 109.02383457 17.88195367 100.85093015 1 78 C-0.47988792 75.04022416 -0.13010399 72.04021991 -0.11352539 68.79638672 C-0.11367142 68.0548233 -0.11381744 67.31325989 -0.1139679 66.54922485 C-0.11327 64.09268287 -0.10548334 61.63621627 -0.09765625 59.1796875 C-0.09579163 57.4786076 -0.09436794 55.77752716 -0.09336853 54.07644653 C-0.08954678 49.59493533 -0.0797194 45.11345643 -0.06866455 40.63195801 C-0.05844308 36.0606327 -0.05386933 31.48930219 -0.04882812 26.91796875 C-0.03809685 17.94529829 -0.02102451 8.97265183 0 0 Z " fill="#4a4a4a" transform="translate(0,272)"/>
</svg>
