<?xml version="1.0" encoding="UTF-8"?>
<svg version="1.1" xmlns="http://www.w3.org/2000/svg" width="512" height="512">
<path d="M0 0 C0.73207169 -0.0049649 1.46414337 -0.00992981 2.21839905 -0.01504517 C4.64064474 -0.02965151 7.06282492 -0.03646654 9.48510742 -0.04199219 C11.17038474 -0.04774529 12.85566204 -0.053503 14.54093933 -0.05926514 C18.07579859 -0.06977104 21.61063514 -0.07561627 25.14550781 -0.07910156 C29.66820918 -0.08458276 34.19060896 -0.1086044 38.71321583 -0.13707352 C42.19541797 -0.1557266 45.67754788 -0.16090694 49.15979576 -0.16243744 C50.82671442 -0.16545891 52.49363197 -0.17347038 54.16050148 -0.18662262 C56.49655506 -0.2037379 58.83187736 -0.20178972 61.16796875 -0.1953125 C62.19452576 -0.20913467 62.19452576 -0.20913467 63.24182129 -0.22323608 C69.11401634 -0.17240651 72.94507311 1.63363026 77.40307617 5.34863281 C81.26568917 9.92277979 83.92820735 13.26423031 83.61135864 19.37808228 C83.10172084 22.65523064 82.52905573 25.90951085 81.91890144 29.16882133 C78.01085131 51.38313792 74.29659019 79.78012945 87.08392334 99.68682861 C96.78550974 113.41793234 108.98465739 125.15543258 121.27807617 136.53613281 C122.17517933 137.36673344 123.07228249 138.19733406 123.99657059 139.0531044 C135.29129925 149.4490741 146.88337823 159.45911343 158.77807617 169.16113281 C159.7848793 168.83679764 160.79168243 168.51246246 161.82899475 168.17829895 C165.5831917 167.1109054 169.04846263 166.90123972 172.96337891 166.88647461 C173.98439194 166.87880821 173.98439194 166.87880821 175.02603149 166.87098694 C177.25466948 166.85719588 179.48299459 166.85803959 181.71166992 166.86035156 C183.27433892 166.85645908 184.83700686 166.85212328 186.39967346 166.84736633 C189.66687457 166.83992683 192.93396757 166.84017901 196.20117188 166.84545898 C200.37160675 166.85125295 204.5415974 166.83431359 208.71195889 166.81111431 C211.93690035 166.79632706 215.16173603 166.79551199 218.3867054 166.79862404 C219.92357323 166.79811341 221.46044738 166.79292457 222.99728203 166.78281212 C232.50496668 166.72791808 239.86284025 166.94732471 248.02807617 172.28613281 C255.84428718 180.45762614 255.37266186 190.08895541 255.30932617 200.72753906 C255.3120259 202.33219131 255.3159123 203.93684195 255.32092285 205.54148865 C255.32679368 208.8910187 255.31833259 212.24011974 255.29956055 215.58959961 C255.27675344 219.86552545 255.28991986 224.14044776 255.3138504 228.41633701 C255.32835847 231.72539221 255.32367993 235.03421249 255.31333923 238.34327507 C255.31068671 239.9192104 255.31388938 241.49516763 255.32325745 243.07107735 C255.36949218 253.03109583 255.05583499 260.09536579 248.40307617 267.97363281 C243.1742242 272.33100946 238.98810019 273.53630104 232.21557617 273.51757812 C231.11681152 273.52064468 231.11681152 273.52064468 229.99584961 273.52377319 C227.58966584 273.5267658 225.18417782 273.50834856 222.77807617 273.48925781 C221.09708831 273.48619702 219.41609791 273.48432333 217.73510742 273.48358154 C214.21808102 273.47898781 210.70128476 273.46459871 207.18432617 273.44238281 C202.68535063 273.41410144 198.186556 273.40316985 193.6875 273.39870071 C190.2181621 273.39453543 186.74886039 273.38470871 183.27954102 273.37282562 C181.62101528 273.36714498 179.96248614 273.36237909 178.30395508 273.35855865 C175.9827674 273.35165141 173.66171881 273.33799818 171.34057617 273.32226562 C170.02186523 273.31543762 168.7031543 273.30860962 167.34448242 273.30157471 C163.77807617 273.16113281 163.77807617 273.16113281 160.7840271 272.22212219 C157.2273491 272.14995881 156.76109106 272.64990964 154.17129517 274.9261322 C152.8029847 276.27411491 151.4539743 277.64185037 150.12036133 279.02416992 C149.37821381 279.76529526 148.63606628 280.50642059 147.87142944 281.27000427 C145.41971311 283.72660185 142.99372319 286.20707164 140.56713867 288.68847656 C138.87330511 290.39536407 137.17792056 292.10071374 135.48104858 293.80458069 C131.01685524 298.2955141 126.57407809 302.80707024 122.13537598 307.32318115 C117.60319579 311.92693913 113.05115992 316.51096951 108.50073242 321.09667969 C99.57359334 330.09891579 90.66825411 339.12240148 81.77807617 348.16113281 C82.10175674 349.16480392 82.42543732 350.16847504 82.75892639 351.20256042 C83.83976318 355.00434011 84.05076801 358.5349719 84.08447266 362.49829102 C84.09279617 363.19526093 84.10111969 363.89223083 84.10969543 364.61032104 C84.13361612 366.89424369 84.14254528 369.17787978 84.14916992 371.46191406 C84.15814991 373.06463193 84.16727198 374.66734901 84.17652893 376.27006531 C84.1929728 379.62301664 84.20071061 382.97586868 84.20361328 386.32885742 C84.20899233 390.60245969 84.24667158 394.87511468 84.29235744 399.1484499 C84.32225841 402.45754821 84.32933965 405.76642194 84.33033943 409.07564354 C84.33451593 410.64996873 84.3468457 412.2242962 84.36785698 413.79848671 C84.47731557 422.70795092 84.37952123 430.71083324 78.77807617 438.16113281 C73.45812014 443.1792799 68.73836612 444.28478177 61.58789062 444.33813477 C60.85903152 444.34470596 60.13017242 444.35127716 59.37922668 444.35804749 C56.9666025 444.37775971 54.55404059 444.38944007 52.14135742 444.39941406 C51.31561911 444.40348959 50.48988079 444.40756512 49.6391201 444.41176414 C45.26625189 444.43261872 40.89341498 444.44692156 36.52050781 444.45629883 C32.01584784 444.46734587 27.5116842 444.50172751 23.00719929 444.54147053 C19.53349423 444.56768868 16.05990635 444.57599538 12.58611107 444.57958031 C10.92641038 444.58443496 9.26671453 444.59601686 7.60711098 444.6146183 C-8.51535733 444.78405367 -8.51535733 444.78405367 -15.22192383 440.16113281 C-17.28051758 438.12597656 -17.28051758 438.12597656 -18.65942383 436.09863281 C-19.13250977 435.42703125 -19.6055957 434.75542969 -20.09301758 434.06347656 C-22.46915984 430.05938908 -22.35388816 426.59324317 -22.3671875 422.03100586 C-22.37054611 421.30868774 -22.37390472 420.58636963 -22.37736511 419.84216309 C-22.38686971 417.45237511 -22.38881812 415.06265727 -22.38989258 412.67285156 C-22.39310602 411.00999421 -22.39647016 409.34713715 -22.39997864 407.6842804 C-22.40596904 404.19649602 -22.40781868 400.70873642 -22.40722656 397.22094727 C-22.40712506 392.75884631 -22.42076497 388.29690491 -22.43799877 383.83484173 C-22.44913689 380.39896419 -22.4511452 376.96312496 -22.45061684 373.52723122 C-22.45179469 371.88265242 -22.45620554 370.23807257 -22.4639492 368.59351158 C-22.47378365 366.28870983 -22.47085732 363.98425104 -22.46484375 361.67944336 C-22.46626877 360.3694487 -22.46769379 359.05945404 -22.46916199 357.70976257 C-22.22414521 354.19301645 -21.49561193 351.43337906 -20.22192383 348.16113281 C-30.00609836 338.21346634 -39.81047181 328.28610374 -49.63855934 318.3818121 C-54.20130048 313.78250127 -58.75728772 309.17689074 -63.29858398 304.55639648 C-67.67940582 300.09965534 -72.07698522 295.66010931 -76.48682785 291.23208809 C-78.16832027 289.53763684 -79.84362735 287.83702486 -81.51265335 286.13029289 C-83.8472155 283.74509767 -86.20259053 281.38253563 -88.56420898 279.02416992 C-89.25329346 278.30991852 -89.94237793 277.59566711 -90.65234375 276.85977173 C-92.44322841 275.09549264 -94.11036219 273.52491178 -96.22192383 272.16113281 C-99.2726097 272.08277658 -99.2726097 272.08277658 -102.22192383 273.16113281 C-104.74137658 273.26034661 -107.26305215 273.3092105 -109.78442383 273.32226562 C-110.51693359 273.32723053 -111.24944336 273.33219543 -112.00415039 273.33731079 C-114.41008465 273.35183131 -116.81595309 273.35871564 -119.22192383 273.36425781 C-120.90291341 273.3700154 -122.583903 273.37577305 -124.26489258 273.38153076 C-127.78182275 273.39201042 -131.29873026 273.39787363 -134.81567383 273.40136719 C-139.31474784 273.40686081 -143.81352061 273.43092003 -148.3125 273.45933914 C-151.78182854 273.47798583 -155.25108457 273.48317209 -158.72045898 273.48470306 C-160.37900447 273.487723 -162.03754889 273.49572923 -163.69604492 273.50888824 C-166.01740389 273.52599981 -168.33802687 273.52405695 -170.65942383 273.51757812 C-171.97813477 273.52122375 -173.2968457 273.52486938 -174.65551758 273.52862549 C-181.04414363 272.87032323 -185.13948933 269.99559472 -189.22192383 265.16113281 C-194.34534788 257.53454002 -193.80583411 249.58612422 -193.75317383 240.72753906 C-193.75587306 239.1238532 -193.75975907 237.52016895 -193.76477051 235.91648865 C-193.77064703 232.5651787 -193.76216394 229.21429702 -193.7434082 225.86303711 C-193.7206378 221.5883012 -193.73374066 217.31457112 -193.75769806 213.03987217 C-193.77222223 209.73077455 -193.76751965 206.42191139 -193.75718689 203.11280632 C-193.75453687 201.53769751 -193.75772801 199.96256673 -193.7671051 198.3874836 C-193.81336301 188.43403915 -193.71459438 179.85801566 -186.47192383 172.28613281 C-177.6707704 166.53153249 -169.32552472 166.7309324 -159.15551758 166.79785156 C-157.59188335 166.79837108 -156.02824846 166.79784983 -154.46461487 166.79634094 C-151.19912879 166.7964303 -147.93389146 166.80678591 -144.66845703 166.82495117 C-140.49689809 166.84765589 -136.32570133 166.84817505 -132.15409756 166.84143353 C-128.92919229 166.83808187 -125.70436859 166.84474581 -122.47947884 166.85456276 C-120.94179779 166.858393 -119.40410764 166.85957207 -117.86642265 166.85797691 C-115.71318335 166.85760331 -113.5603973 166.87030727 -111.40722656 166.88647461 C-110.18559311 166.891082 -108.96395966 166.89568939 -107.70530701 166.9004364 C-103.90394329 167.18493048 -100.83768436 167.99633874 -97.22192383 169.16113281 C-84.36259451 158.70269403 -71.89081319 147.85382708 -59.72192383 136.59863281 C-58.83054089 135.77428616 -57.93915794 134.9499395 -57.0207634 134.10061264 C-36.91075812 115.32863902 -18.8189033 97.8088481 -17.23034286 69.13298988 C-16.74855892 54.87630886 -18.17526818 40.21903053 -20.76051331 26.19650269 C-22.77853519 15.06013911 -22.77853519 15.06013911 -20.48950195 10.32568359 C-18.5014755 7.55126511 -16.95833022 5.62732059 -14.15942383 3.72363281 C-13.15202148 3.01400391 -13.15202148 3.01400391 -12.12426758 2.29003906 C-8.16434123 -0.0598967 -4.45373613 0.00721079 0 0 Z M-15.22192383 102.16113281 C-39.97192383 126.91113281 -64.72192383 151.66113281 -90.22192383 177.16113281 C-89.56192383 179.14113281 -88.90192383 181.12113281 -88.22192383 183.16113281 C-87.89192383 193.72113281 -87.56192383 204.28113281 -87.22192383 215.16113281 C-65.77192383 215.16113281 -44.32192383 215.16113281 -22.22192383 215.16113281 C-21.89192383 204.60113281 -21.56192383 194.04113281 -21.22192383 183.16113281 C-15.60994845 171.93718206 -15.60994845 171.93718206 -8.48706055 169.05419922 C-4.84583605 168.05826687 -1.62709079 167.84059976 2.14526367 167.74707031 C4.01093994 167.69365479 4.01093994 167.69365479 5.91430664 167.63916016 C7.47810059 167.60516113 9.04189453 167.57116211 10.65307617 167.53613281 C15.64432617 167.41238281 20.63557617 167.28863281 25.77807617 167.16113281 C25.77807617 147.03113281 25.77807617 126.90113281 25.77807617 106.16113281 C10.92807617 105.66613281 10.92807617 105.66613281 -4.22192383 105.16113281 C-7.85192383 104.17113281 -11.48192383 103.18113281 -15.22192383 102.16113281 Z M71.71557617 103.61816406 C65.0491914 106.14930703 57.81174612 105.73534028 50.77807617 105.84863281 C45.82807617 105.95175781 40.87807617 106.05488281 35.77807617 106.16113281 C35.77807617 126.29113281 35.77807617 146.42113281 35.77807617 167.16113281 C45.57454426 167.33114761 45.57454426 167.33114761 55.37158203 167.45898438 C63.42403015 167.65839332 71.0029 167.9770982 77.34790039 173.53662109 C87.25188742 184.39529449 83.37354364 202.62062426 83.77807617 215.16113281 C105.22807617 215.16113281 126.67807617 215.16113281 148.77807617 215.16113281 C149.10807617 204.60113281 149.43807617 194.04113281 149.77807617 183.16113281 C150.10807617 181.18113281 150.43807617 179.20113281 150.77807617 177.16113281 C149.80168831 175.16224927 149.80168831 175.16224927 148.05776978 173.59231567 C147.42952805 172.95300613 146.80128632 172.31369659 146.15400696 171.65501404 C145.45067734 170.9752803 144.74734772 170.29554657 144.02270508 169.59521484 C143.29293961 168.86282089 142.56317413 168.13042694 141.81129456 167.37583923 C139.39212206 164.95644486 136.94896323 162.5629043 134.50463867 160.16894531 C132.82263676 158.4974598 131.14210232 156.82449639 129.46298218 155.15011597 C125.03673147 150.74493186 120.58941785 146.36160166 116.13787842 141.98199463 C112.4978321 138.39377837 108.87273309 134.79067059 105.24837685 131.1866169 C97.77850502 123.75901756 90.2990819 116.34092338 82.79223633 108.95068359 C82.09295517 108.25880447 81.39367401 107.56692535 80.67320251 106.8540802 C80.03932114 106.23168961 79.40543976 105.60929901 78.75234985 104.9680481 C78.19889704 104.42276522 77.64544422 103.87748234 77.07522011 103.31567574 C74.84618732 101.3316908 74.7268575 102.18550088 71.71557617 103.61816406 Z M-87.22192383 225.16113281 C-87.51054565 235.75109982 -87.51054565 235.75109982 -87.79003906 246.34130859 C-87.82820423 247.67969688 -87.86667686 249.01807646 -87.90551758 250.35644531 C-87.92199341 251.03827881 -87.93846924 251.7201123 -87.95544434 252.42260742 C-88.04722456 255.46619358 -88.17079795 258.01287961 -89.16943359 260.90869141 C-89.23013501 264.6699204 -88.81916172 265.10081017 -86.41896057 267.80587769 C-85.05303459 269.19213393 -83.66735368 270.55908197 -82.26708984 271.91064453 C-81.51621094 272.66254562 -80.76533203 273.41444672 -79.99169922 274.18913269 C-77.50264069 276.67330969 -74.98969702 279.13177193 -72.47583008 281.59082031 C-70.74652231 283.30707424 -69.01875239 285.024879 -67.29246521 286.74417114 C-62.74235005 291.26754541 -58.17160698 295.76950872 -53.59631348 300.26739502 C-48.93223261 304.85989991 -44.28787857 309.47225802 -39.6418457 314.08300781 C-30.5211215 323.12863352 -21.37914426 332.15246314 -12.22192383 341.16113281 C-8.75692383 340.17113281 -8.75692383 340.17113281 -5.22192383 339.16113281 C10.12307617 338.66613281 10.12307617 338.66613281 25.77807617 338.16113281 C25.77807617 316.71113281 25.77807617 295.26113281 25.77807617 273.16113281 C15.27834309 272.99101863 15.27834309 272.99101863 4.77807617 272.86328125 C-10.74266275 272.58333324 -10.74266275 272.58333324 -17.06176758 266.34472656 C-17.60510742 265.48041016 -17.60510742 265.48041016 -18.15942383 264.59863281 C-18.53969727 264.01984375 -18.9199707 263.44105469 -19.31176758 262.84472656 C-21.45575941 258.87880176 -21.43472225 255.03362124 -21.53833008 250.64941406 C-21.5569812 250.0037146 -21.57563232 249.35801514 -21.59484863 248.69274902 C-21.66301756 246.28651281 -21.7232484 243.88005699 -21.78442383 241.47363281 C-22.00098633 233.39894531 -22.00098633 233.39894531 -22.22192383 225.16113281 C-43.67192383 225.16113281 -65.12192383 225.16113281 -87.22192383 225.16113281 Z M83.77807617 225.16113281 C83.44807617 235.72113281 83.11807617 246.28113281 82.77807617 257.16113281 C77.11140951 268.49446615 77.11140951 268.49446615 71.77807617 271.16113281 C68.23830369 272.34105697 64.95537123 272.39036008 61.26635742 272.47753906 C60.62065796 272.49619019 59.9749585 272.51484131 59.30969238 272.53405762 C56.90345617 272.60222655 54.49700035 272.66245738 52.09057617 272.72363281 C44.01588867 272.94019531 44.01588867 272.94019531 35.77807617 273.16113281 C35.77807617 294.61113281 35.77807617 316.06113281 35.77807617 338.16113281 C46.00807617 338.49113281 56.23807617 338.82113281 66.77807617 339.16113281 C69.08807617 339.82113281 71.39807617 340.48113281 73.77807617 341.16113281 C83.85612577 331.2465719 93.91387466 321.31181385 103.94854832 311.35334587 C108.60839207 306.73007247 113.2745388 302.11355029 117.95556641 297.51171875 C122.47066073 293.07254129 126.96856499 288.6166056 131.45493889 284.1484108 C133.17171859 282.44459036 134.89465937 280.7469553 136.62372017 279.05559921 C139.04004329 276.68990579 141.43374846 274.30339113 143.82324219 271.91064453 C144.9086454 270.86299171 144.9086454 270.86299171 146.01597595 269.79417419 C147.80343299 267.98011287 149.39979725 266.30243142 150.77807617 264.16113281 C150.89451608 260.93688739 150.89451608 260.93688739 149.77807617 258.16113281 C149.63381498 255.55413932 149.52470261 252.96498133 149.46166992 250.35644531 C149.4430188 249.71376709 149.42436768 249.07108887 149.40515137 248.40893555 C149.33745086 246.03479226 149.27692356 243.66044876 149.21557617 241.28613281 C148.99901367 233.30425781 148.99901367 233.30425781 148.77807617 225.16113281 C127.32807617 225.16113281 105.87807617 225.16113281 83.77807617 225.16113281 Z " fill="#4a4a4a" transform="translate(225.221923828125,33.8388671875)"/>
</svg>
