<?xml version="1.0" encoding="UTF-8"?>
<svg version="1.1" xmlns="http://www.w3.org/2000/svg" width="512" height="512" >
<path d="M0 0 C1.258125 -0.01546875 2.51625 -0.0309375 3.8125 -0.046875 C15.44243645 0.00240439 15.44243645 0.00240439 20 4.5 C24.28712794 9.39754682 24.52291697 13.1818842 24.25 19.375 C24.23195313 20.15875 24.21390625 20.9425 24.1953125 21.75 C24.14855148 23.66720189 24.07682003 25.58376715 24 27.5 C24.87398437 27.61085938 25.74796875 27.72171875 26.6484375 27.8359375 C30.99735546 28.69761122 34.48362684 30.54632061 38.4140625 32.5390625 C40.8677088 33.64465444 40.8677088 33.64465444 43.08984375 33.39453125 C46.40175446 31.84355466 48.47021228 29.07437978 50.90234375 26.41015625 C54.99365849 22.68454562 59.31618834 21.95900897 64.6875 22.14453125 C71.66377247 23.21689746 76.46962542 28.7059977 81.3125 33.4375 C81.82852783 33.93926758 82.34455566 34.44103516 82.8762207 34.95800781 C86.59252588 38.72373356 89.48599196 42.47642331 90.3984375 47.84375 C90.34423324 52.83054212 89.88362215 56.26467997 87 60.5 C84.896277 62.55479921 82.7689504 64.5460696 80.546875 66.47265625 C78.74188695 68.38885828 78.74188695 68.38885828 79.10546875 70.86328125 C80.48715488 74.93593687 82.21003433 78.82421397 83.94140625 82.7578125 C85 85.5 85 85.5 85 88.5 C86.15757812 88.45359375 87.31515625 88.4071875 88.5078125 88.359375 C90.04684906 88.32183752 91.5859137 88.28543949 93.125 88.25 C93.88554687 88.21648437 94.64609375 88.18296875 95.4296875 88.1484375 C100.78622233 88.05608345 103.82356793 88.84410873 108 92.5 C112.74136566 97.30458387 112.51972728 102.28063786 112.546875 108.6875 C112.53140625 109.945625 112.5159375 111.20375 112.5 112.5 C112.52320313 114.3871875 112.52320313 114.3871875 112.546875 116.3125 C112.49759561 127.94243645 112.49759561 127.94243645 108 132.5 C103.10245318 136.78712794 99.3181158 137.02291697 93.125 136.75 C92.34125 136.73195312 91.5575 136.71390625 90.75 136.6953125 C88.83279811 136.64855148 86.91623285 136.57682003 85 136.5 C84.88914062 137.37398437 84.77828125 138.24796875 84.6640625 139.1484375 C83.80238878 143.49735546 81.95367939 146.98362684 79.9609375 150.9140625 C78.85534556 153.3677088 78.85534556 153.3677088 79.10546875 155.58984375 C80.65644534 158.90175446 83.42562022 160.97021228 86.08984375 163.40234375 C89.60112984 167.25829596 90.46734366 171.22115179 90.3125 176.40478516 C89.26831711 183.4057051 84.53513037 188.57773143 79.625 193.3125 C79.07328125 193.87130859 78.5215625 194.43011719 77.953125 195.00585938 C74.04516497 198.85419091 70.22961744 201.95096504 64.65625 202.8984375 C59.66945788 202.84423324 56.23532003 202.38362215 52 199.5 C49.94520079 197.396277 47.9539304 195.2689504 46.02734375 193.046875 C44.11114172 191.24188695 44.11114172 191.24188695 41.63671875 191.60546875 C37.56406313 192.98715488 33.67578603 194.71003433 29.7421875 196.44140625 C27 197.5 27 197.5 24 197.5 C24.04640625 198.65757812 24.0928125 199.81515625 24.140625 201.0078125 C24.17816248 202.54684906 24.21456051 204.0859137 24.25 205.625 C24.28351563 206.38554687 24.31703125 207.14609375 24.3515625 207.9296875 C24.44391655 213.28622233 23.65589127 216.32356793 20 220.5 C15.19541613 225.24136566 10.21936214 225.01972728 3.8125 225.046875 C2.554375 225.03140625 1.29625 225.0159375 0 225 C-1.258125 225.01546875 -2.51625 225.0309375 -3.8125 225.046875 C-15.44243645 224.99759561 -15.44243645 224.99759561 -20 220.5 C-24.28712794 215.60245318 -24.52291697 211.8181158 -24.25 205.625 C-24.23195313 204.84125 -24.21390625 204.0575 -24.1953125 203.25 C-24.14855148 201.33279811 -24.07682003 199.41623285 -24 197.5 C-24.87398438 197.38914063 -25.74796875 197.27828125 -26.6484375 197.1640625 C-30.99735546 196.30238878 -34.48362684 194.45367939 -38.4140625 192.4609375 C-40.8677088 191.35534556 -40.8677088 191.35534556 -43.08984375 191.60546875 C-46.40175446 193.15644534 -48.47021228 195.92562022 -50.90234375 198.58984375 C-54.75829596 202.10112984 -58.72115179 202.96734366 -63.90478516 202.8125 C-70.9057051 201.76831711 -76.07773143 197.03513037 -80.8125 192.125 C-81.37130859 191.57328125 -81.93011719 191.0215625 -82.50585938 190.453125 C-86.35419091 186.54516497 -89.45096504 182.72961744 -90.3984375 177.15625 C-90.34423324 172.16945788 -89.88362215 168.73532003 -87 164.5 C-84.896277 162.44520079 -82.7689504 160.4539304 -80.546875 158.52734375 C-78.74188695 156.61114172 -78.74188695 156.61114172 -79.10546875 154.13671875 C-80.48715488 150.06406313 -82.21003433 146.17578603 -83.94140625 142.2421875 C-85 139.5 -85 139.5 -85 136.5 C-86.15757812 136.54640625 -87.31515625 136.5928125 -88.5078125 136.640625 C-90.04684906 136.67816248 -91.5859137 136.71456051 -93.125 136.75 C-93.88554687 136.78351563 -94.64609375 136.81703125 -95.4296875 136.8515625 C-100.78622233 136.94391655 -103.82356793 136.15589127 -108 132.5 C-112.74136566 127.69541613 -112.51972728 122.71936214 -112.546875 116.3125 C-112.53140625 115.054375 -112.5159375 113.79625 -112.5 112.5 C-112.51546875 111.241875 -112.5309375 109.98375 -112.546875 108.6875 C-112.49759561 97.05756355 -112.49759561 97.05756355 -108 92.5 C-103.10245318 88.21287206 -99.3181158 87.97708303 -93.125 88.25 C-92.34125 88.26804687 -91.5575 88.28609375 -90.75 88.3046875 C-88.83279811 88.35144852 -86.91623285 88.42317997 -85 88.5 C-84.88914063 87.62601562 -84.77828125 86.75203125 -84.6640625 85.8515625 C-83.80238878 81.50264454 -81.95367939 78.01637316 -79.9609375 74.0859375 C-78.85534556 71.6322912 -78.85534556 71.6322912 -79.10546875 69.41015625 C-80.65644534 66.09824554 -83.42562022 64.02978772 -86.08984375 61.59765625 C-89.81545438 57.50634151 -90.54099103 53.18381166 -90.35546875 47.8125 C-89.28772418 40.86629359 -83.81955572 36.03431552 -79.125 31.1875 C-78.63161133 30.67147217 -78.13822266 30.15544434 -77.62988281 29.6237793 C-73.56216447 25.58325868 -69.53101745 23.13297677 -63.77734375 22.1015625 C-57.94766817 22.17582588 -54.14525516 23.30801651 -50.02734375 27.515625 C-48.66702938 28.97001718 -47.33188332 30.44850268 -46.02734375 31.953125 C-44.11114172 33.75811305 -44.11114172 33.75811305 -41.63671875 33.39453125 C-37.56406313 32.01284512 -33.67578603 30.28996567 -29.7421875 28.55859375 C-27 27.5 -27 27.5 -24 27.5 C-24.04640625 26.34242187 -24.0928125 25.18484375 -24.140625 23.9921875 C-24.17816248 22.45315094 -24.21456051 20.9140863 -24.25 19.375 C-24.28351563 18.61445312 -24.31703125 17.85390625 -24.3515625 17.0703125 C-24.44391655 11.71377767 -23.65589127 8.67643207 -20 4.5 C-14.38621483 -1.03991958 -7.39116829 -0.09087502 0 0 Z M-36.40625 81.5625 C-46.24890124 93.52807602 -48.46520632 106.42634446 -47 121.5 C-44.65958771 133.89861275 -36.89285948 144.84700605 -26.6875 152.15625 C-14.60489325 159.8589118 -1.52953219 161.48759709 12.4765625 158.84375 C25.49925334 154.94030778 36.12737247 145.85070272 42.7109375 134.07421875 C48.33801871 122.83710809 49.05039372 109.05336095 45.4375 97 C40.49171546 84.40914712 31.14856999 74.35554343 19 68.5 C12.85137735 65.9685678 7.32044251 64.97589738 0.6875 65.0625 C-0.55471313 65.07494751 -0.55471313 65.07494751 -1.82202148 65.08764648 C-15.78437254 65.46985989 -26.86288832 71.47894804 -36.40625 81.5625 Z " fill="#4a4a4a" transform="translate(256,31.5)"/>
<path d="M0 0 C3.03755245 3.79694056 5.39286229 7.17679215 7.79296875 11.33984375 C8.14329666 11.94325089 8.49362457 12.54665802 8.85456848 13.16835022 C9.96943088 15.08918195 11.07901748 17.0129805 12.1875 18.9375 C16.61291696 26.61383916 21.0773933 34.25493433 25.82421875 41.73828125 C26.18895798 42.32052963 26.5536972 42.90277802 26.92948914 43.50267029 C30.60320863 49.22386467 34.03043178 51.76734904 40.3125 54.375 C48.56283811 55.77336239 55.81847077 53.71430471 63.421875 50.59765625 C64.30342255 50.24857712 65.18497009 49.89949799 66.0932312 49.5398407 C68.98361147 48.39236228 71.86659834 47.22738977 74.75 46.0625 C76.79291861 45.24832217 78.83638628 44.43552085 80.88037109 43.62402344 C85.13105591 41.93518122 89.37931437 40.2404345 93.62597656 38.54150391 C102.64675295 34.93789364 111.69559252 31.40631641 120.74462891 27.87442017 C124.55755574 26.38595507 128.36952191 24.89503887 132.18145752 23.40403748 C134.04496237 22.67517201 135.90852778 21.94646136 137.77215576 21.21791077 C143.24034188 19.08017054 148.70717649 16.93901726 154.17306519 14.79541016 C157.56806491 13.46472838 160.96414649 12.13682579 164.36053467 10.80969238 C165.94047044 10.19166545 167.51994693 9.57246297 169.09893799 8.95202637 C171.24705183 8.10814309 173.39673554 7.26839346 175.546875 6.4296875 C176.75182617 5.95772949 177.95677734 5.48577148 179.19824219 4.99951172 C182 4 182 4 184 4 C184.09280769 15.85707707 184.16381984 27.71406727 184.20724869 39.57143402 C184.22809567 45.0777014 184.25636082 50.5837197 184.30175781 56.08984375 C184.34531818 61.40666645 184.36915883 66.72325001 184.37950897 72.04023743 C184.38688202 74.06557477 184.40127989 76.09089949 184.42292023 78.11613464 C184.45208949 80.95986902 184.45595034 83.80262372 184.45410156 86.64648438 C184.46848267 87.47799011 184.48286377 88.30949585 184.49768066 89.16619873 C184.45068411 95.87637735 182.50082935 100.94462834 178.24389648 106.14550781 C172.94854422 110.70172459 167.56201905 113.27618898 161.0625 115.75 C159.91974609 116.20060791 158.77699219 116.65121582 157.59960938 117.11547852 C154.19789908 118.4551182 150.78738906 119.77109106 147.37530518 121.08404541 C143.91045429 122.42014576 140.45008472 123.76770182 136.98933411 125.11437988 C128.80740788 128.29812868 120.62160747 131.47175041 112.43254089 134.63708496 C98.31484783 140.09452144 84.21525649 145.5971425 70.125 151.125 C69.07514923 151.53664398 68.02529846 151.94828796 66.94363403 152.37240601 C55.38670248 156.90461247 43.83752443 161.45569737 32.30078125 166.0390625 C31.29021667 166.44017242 30.2796521 166.84128235 29.23846436 167.25454712 C24.44709466 169.15637888 19.65705184 171.06139878 14.86962891 172.97314453 C13.18267153 173.64369141 11.4956629 174.31410939 9.80859375 174.984375 C9.04041824 175.29267242 8.27224274 175.60096985 7.48078918 175.91860962 C2.22707251 178 2.22707251 178 0 178 C0 119.26 0 60.52 0 0 Z " fill="#4a4a4a" transform="translate(264,300)"/>
<path d="M0 0 C0.33 0 0.66 0 1 0 C1 58.74 1 117.48 1 178 C-4.87991911 176.04002696 -10.65107195 174.03658114 -16.40625 171.76953125 C-17.1912236 171.46247757 -17.9761972 171.15542389 -18.78495789 170.83906555 C-21.35745434 169.8322793 -23.92871568 168.8223775 -26.5 167.8125 C-28.33104332 167.09530353 -30.16218122 166.37834848 -31.9934082 165.66162109 C-35.789749 164.17556141 -39.58568361 162.68847091 -43.38134766 161.20068359 C-51.14611014 158.15813925 -58.91634073 155.12963623 -66.6862793 152.1003418 C-84.23619626 145.25681634 -101.78329071 138.40588857 -119.32104492 131.53125 C-120.26823898 131.15996979 -121.21543304 130.78868958 -122.19132996 130.40615845 C-124.07433158 129.66806091 -125.95731719 128.92992252 -127.84028625 128.19174194 C-133.09550784 126.13297504 -138.35453563 124.08445251 -143.61828613 122.04759216 C-146.70069633 120.85406849 -149.78105356 119.65530749 -152.86108398 118.45565796 C-154.26584055 117.91011423 -155.67157651 117.36708441 -157.07836914 116.82681274 C-158.99234356 116.09156434 -160.90270629 115.34758974 -162.8125 114.6015625 C-163.87082031 114.19244629 -164.92914063 113.78333008 -166.01953125 113.36181641 C-170.7518091 111.19957477 -174.88932412 108.56022708 -178.25 104.5625 C-178.72953125 104.00691406 -179.2090625 103.45132813 -179.703125 102.87890625 C-183.25247729 97.73662176 -183.27853157 93.01745052 -183.22705078 86.98706055 C-183.22734283 86.08900192 -183.22763489 85.1909433 -183.22793579 84.26567078 C-183.2265457 81.30592082 -183.21099953 78.34642457 -183.1953125 75.38671875 C-183.19158123 73.33120359 -183.1887348 71.27568665 -183.18673706 69.22016907 C-183.17910959 63.81638661 -183.15946863 58.41271206 -183.1373291 53.00897217 C-183.11685164 47.49232442 -183.10773127 41.97565919 -183.09765625 36.45898438 C-183.07622196 25.63927557 -183.04209664 14.81964677 -183 4 C-176.38427742 5.88810108 -169.97068489 8.05896205 -163.578125 10.59765625 C-162.6962149 10.94404144 -161.81430481 11.29042664 -160.90567017 11.64730835 C-158.01898281 12.78202485 -155.13451454 13.92227277 -152.25 15.0625 C-150.21256801 15.86443471 -148.17496728 16.6659408 -146.13720703 17.46704102 C-141.89388513 19.13557142 -137.65129809 20.80595136 -133.40917969 22.47753906 C-127.18510108 24.92879077 -120.95665293 27.3687615 -114.7265625 29.8046875 C-113.73593811 30.19211121 -112.74531372 30.57953491 -111.72467041 30.97869873 C-106.84129159 32.88813199 -101.95719693 34.79571394 -97.07226562 36.70117188 C-88.77822962 39.93880381 -80.49197842 43.19009928 -72.2421875 46.5390625 C-70.94167953 47.06350658 -69.64106537 47.5876874 -68.34033203 48.11157227 C-66.05297231 49.03594183 -63.76959736 49.97027874 -61.49169922 50.91772461 C-52.83653512 54.4035396 -45.22874295 56.24564169 -36.203125 53.1796875 C-30.29418524 50.01568075 -26.83947344 45.78438651 -23.57421875 40.0390625 C-22.98638359 39.03762711 -22.98638359 39.03762711 -22.38667297 38.01596069 C-21.14283081 35.89171578 -19.91482364 33.7588227 -18.6875 31.625 C-17.87671996 30.23245001 -17.06487809 28.84051769 -16.25195312 27.44921875 C-14.6392807 24.68703105 -13.03012602 21.92284194 -11.42333984 19.15722656 C-8.95339258 14.91388403 -6.46600922 10.68132163 -3.95703125 6.4609375 C-3.57359055 5.80976959 -3.19014984 5.15860168 -2.79508972 4.48770142 C-1.89167437 2.97455323 -0.94994392 1.48437976 0 0 Z " fill="#4a4a4a" transform="translate(247,300)"/>
<path d="M0 0 C3.24995032 2.98995429 5.38259099 6.03507521 7.58203125 9.85546875 C7.91341599 10.4263623 8.24480072 10.99725586 8.58622742 11.58544922 C9.66713997 13.44968384 10.73967676 15.31860072 11.8125 17.1875 C13.32664058 19.8037023 14.8451319 22.41737246 16.36328125 25.03125 C16.74698883 25.69327927 17.13069641 26.35530853 17.52603149 27.03739929 C22.0769304 34.87919509 26.75800878 42.64143103 31.44067383 50.4050293 C32.02743896 51.37867432 32.6142041 52.35231934 33.21875 53.35546875 C33.9912207 54.63393677 33.9912207 54.63393677 34.77929688 55.93823242 C36.92778058 59.5670214 37.4190809 61.72537481 37 66 C33.83548283 71.31017565 29.69920076 72.74394689 24.1640625 74.79296875 C23.27447845 75.13620682 22.38489441 75.47944489 21.46835327 75.83308411 C18.52565993 76.96504637 15.57547293 78.07599133 12.625 79.1875 C10.54626681 79.98343945 8.4681508 80.78099249 6.390625 81.58007812 C2.07170523 83.23983649 -2.24979493 84.89260026 -6.57324219 86.54052734 C-15.46244404 89.93466814 -24.3185023 93.41271564 -33.17498779 96.89111328 C-37.91194271 98.7504845 -42.65142311 100.60339649 -47.390625 102.45703125 C-49.30275005 103.20520083 -51.21485931 103.95341075 -53.12695312 104.70166016 C-54.08641846 105.07711975 -55.04588379 105.45257935 -56.03442383 105.8394165 C-60.13683617 107.44490285 -64.23913878 109.0506695 -68.34143066 110.65646362 C-72.4823017 112.27734114 -76.62322896 113.898075 -80.76416016 115.51879883 C-82.71503442 116.28239941 -84.66588193 117.04606832 -86.61669922 117.80981445 C-87.99559326 118.34964966 -87.99559326 118.34964966 -89.40234375 118.90039062 C-90.30231079 119.25295929 -91.20227783 119.60552795 -92.1295166 119.96878052 C-93.88770316 120.65623219 -95.6467196 121.3415657 -97.40661621 122.02462769 C-101.65012324 123.67359532 -105.87465816 125.35443536 -110.07617188 127.10791016 C-110.88789856 127.44047318 -111.69962524 127.77303619 -112.53594971 128.11567688 C-114.05190464 128.73782197 -115.56282318 129.37245973 -117.06707764 130.02238464 C-121.72219532 131.91314239 -124.9934141 132.38455446 -130 131 C-131.6796875 129.68188477 -131.6796875 129.68188477 -132.875 127.87890625 C-133.36226563 127.1533252 -133.84953125 126.42774414 -134.3515625 125.68017578 C-134.89554687 124.79571777 -135.43953125 123.91125977 -136 123 C-137.00160156 121.37360596 -137.00160156 121.37360596 -138.0234375 119.71435547 C-140.39199417 115.81384045 -142.69587397 111.87628792 -145 107.9375 C-146.68121616 105.07802401 -148.36573091 102.22049913 -150.05078125 99.36328125 C-150.46846268 98.65419617 -150.8861441 97.94511108 -151.31648254 97.21453857 C-153.95824375 92.73781954 -156.63582582 88.28528417 -159.35546875 83.85546875 C-160.00708984 82.79400635 -160.65871094 81.73254395 -161.33007812 80.63891602 C-162.54524738 78.66714098 -163.76386281 76.69748455 -164.98632812 74.73022461 C-165.52064453 73.86276611 -166.05496094 72.99530762 -166.60546875 72.1015625 C-167.07106201 71.35213379 -167.53665527 70.60270508 -168.01635742 69.83056641 C-169 68 -169 68 -169 66 C-168.01757324 65.62415771 -167.03514648 65.24831543 -166.02294922 64.86108398 C-147.79567328 57.88442116 -129.58392023 50.87220036 -111.4375 43.6875 C-110.66919861 43.38332153 -109.90089722 43.07914307 -109.10931396 42.76574707 C-108.33186829 42.45794312 -107.55442261 42.15013916 -106.75341797 41.83300781 C-94.34709209 36.92166707 -81.92696916 32.04636462 -69.5 27.1875 C-68.55299225 26.81718658 -67.6059845 26.44687317 -66.63027954 26.06533813 C-61.78066484 24.16904781 -56.93089472 22.27315535 -52.08105469 20.37744141 C-42.46602112 16.61878759 -32.85261449 12.85597491 -23.23901367 9.09365845 C-18.30783568 7.16385905 -13.37657213 5.23427829 -8.4453125 3.3046875 C-6.79443317 2.6586925 -5.14355421 2.01269653 -3.49267578 1.36669922 C-2.34009277 0.91568848 -1.18750977 0.46467773 0 0 Z " fill="#4a4a4a" transform="translate(436,209)"/>
<path d="M0 0 C12.81463344 4.76271641 25.56831693 9.6772613 38.3125 14.625 C39.36579498 15.03362274 40.41908997 15.44224548 41.50430298 15.86325073 C63.1876657 24.27627797 84.84101494 32.76528619 106.48983765 41.26670837 C117.20658273 45.47477854 127.92621666 49.67545699 138.64736938 53.87228394 C140.65085987 54.65665371 142.65425971 55.44125508 144.65756226 56.22610474 C147.42123212 57.30884025 150.18518701 58.39084494 152.94921875 59.47265625 C153.75206299 59.78734863 154.55490723 60.10204102 155.38208008 60.42626953 C160.23958811 62.32620277 165.11233799 64.17898368 170 66 C168.56594155 69.86140222 166.76853075 73.29785785 164.68359375 76.84765625 C164.19061043 77.68950218 164.19061043 77.68950218 163.68766785 78.5483551 C162.60815189 80.38871205 161.52318888 82.22577882 160.4375 84.0625 C159.68211061 85.34487855 158.92673979 86.62726803 158.17138672 87.90966797 C153.06998963 96.55654006 147.92907518 105.18021133 142.74099731 113.77536011 C142.00017308 115.00319286 141.26063874 116.23180486 140.52243042 117.46121216 C139.49081954 119.17738243 138.45258487 120.8895658 137.4140625 122.6015625 C136.8257666 123.57432129 136.2374707 124.54708008 135.63134766 125.54931641 C133.19560664 129.20839577 132.21790127 130.65305029 127.88305664 131.88793945 C122.88985429 132.03203753 119.43234844 130.68464768 114.87109375 128.79296875 C113.54308495 128.26537712 113.54308495 128.26537712 112.18824768 127.72712708 C109.26515418 126.56206975 106.35166883 125.37468391 103.4375 124.1875 C101.37373486 123.36091043 99.30926863 122.53606934 97.24414062 121.71289062 C92.95281376 120.0007503 88.66460746 118.28111125 84.37841797 116.55615234 C75.55218744 113.01059255 66.69041202 109.55679654 57.82803345 106.10284424 C53.08677816 104.25390356 48.34821309 102.39809382 43.609375 100.54296875 C41.6972748 99.79473566 39.78516536 99.04652619 37.87304688 98.29833984 C32.80143573 96.3137084 27.72997979 94.32868061 22.65856934 92.34353638 C18.5176983 90.72265886 14.37677104 89.101925 10.23583984 87.48120117 C8.28496558 86.71760059 6.33411807 85.95393168 4.38330078 85.19018555 C2.54556921 84.47071605 0.70772175 83.75154252 -1.13024902 83.03268433 C-2.88758329 82.34441183 -4.64419465 81.65429029 -6.40002441 80.96218872 C-10.64385469 79.29278618 -14.89602786 77.66236224 -19.18164062 76.10302734 C-20.00690247 75.79753464 -20.83216431 75.49204193 -21.68243408 75.17729187 C-23.22721437 74.607066 -24.77644359 74.04868402 -26.33074951 73.50495911 C-30.85248269 71.82102222 -33.44486883 70.12326514 -36 66 C-36.81102652 60.94301113 -35.10591028 57.60406065 -32.5625 53.375 C-32.17634521 52.71113281 -31.79019043 52.04726563 -31.39233398 51.36328125 C-29.9466178 48.89749121 -28.47512145 46.44831619 -27 44 C-26.36191406 42.9368457 -25.72382812 41.87369141 -25.06640625 40.77832031 C-16.84902982 27.10016276 -8.51068 13.49778588 0 0 Z " fill="#4a4a4a" transform="translate(75,209)"/>
<path d="M0 0 C6.76015657 0.64014015 13.27307255 1.77739227 19.90625 3.21484375 C20.91216187 3.4306459 21.91807373 3.64644806 22.95446777 3.86878967 C25.06260484 4.32283593 27.17022541 4.77928642 29.27734375 5.23803711 C32.51625434 5.94102793 35.75795993 6.62996424 39 7.31835938 C41.05226753 7.76216993 43.10435767 8.20680176 45.15625 8.65234375 C46.12904907 8.85762192 47.10184814 9.06290009 48.10412598 9.2743988 C49.44187073 9.56964195 49.44187073 9.56964195 50.80664062 9.87084961 C51.59445923 10.04104111 52.38227783 10.2112326 53.19396973 10.38658142 C55 11 55 11 56 13 C50.91805301 15.00868235 45.83584459 17.01670147 40.75341797 19.02416992 C39.03329814 19.70368596 37.31324346 20.38336693 35.59326172 21.06323242 C31.41029764 22.71659242 27.22628207 24.36716553 23.04003906 26.01220703 C19.61906665 27.35737899 16.2056512 28.71991358 12.79589844 30.09326172 C11.15302946 30.74845933 9.51012718 31.40357344 7.8671875 32.05859375 C7.10326691 32.37014908 6.33934631 32.68170441 5.55227661 33.00270081 C3.72371707 33.72721672 1.86383468 34.37176948 0 35 C-0.66 34.67 -1.32 34.34 -2 34 C-1.72285156 33.46890625 -1.44570313 32.9378125 -1.16015625 32.390625 C-0.79792969 31.68421875 -0.43570312 30.9778125 -0.0625 30.25 C0.29714844 29.55390625 0.65679687 28.8578125 1.02734375 28.140625 C5.17262497 19.01767678 2.96909175 9.13702641 0 0 Z " fill="#4a4a4a" transform="translate(357,190)"/>
<path d="M0 0 C-0.2165625 0.66644531 -0.433125 1.33289063 -0.65625 2.01953125 C-4.04565155 13.23907806 -3.94297896 21.35969189 1 32 C1.33 32.99 1.66 33.98 2 35 C-7.96317237 32.29483537 -17.42688178 28.38572072 -27 24.5625 C-28.70037019 23.88699048 -30.40089004 23.21185754 -32.1015625 22.53710938 C-36.73654862 20.69683693 -41.36889732 18.85002092 -46 17 C-47.12664062 16.54995605 -48.25328125 16.09991211 -49.4140625 15.63623047 C-51.60972354 14.75835261 -53.80512965 13.87985243 -56 13 C-55.67 12.34 -55.34 11.68 -55 11 C-52.97050476 10.34188843 -52.97050476 10.34188843 -50.26831055 9.76318359 C-49.26023849 9.54310638 -48.25216644 9.32302917 -47.21354675 9.09628296 C-45.56676689 8.75084946 -45.56676689 8.75084946 -43.88671875 8.3984375 C-42.7656221 8.1571109 -41.64452545 7.9157843 -40.48945618 7.66714478 C-38.11207662 7.15720666 -35.73380396 6.65141769 -33.35473633 6.14941406 C-29.71157266 5.38008345 -26.07147539 4.59741256 -22.43164062 3.8125 C-20.12516949 3.31951885 -17.81853398 2.827306 -15.51171875 2.3359375 C-13.87404793 1.9844313 -13.87404793 1.9844313 -12.20329285 1.62582397 C-10.67700005 1.30516464 -10.67700005 1.30516464 -9.11987305 0.97802734 C-8.22576218 0.78864594 -7.33165131 0.59926453 -6.41044617 0.40414429 C-4 0 -4 0 0 0 Z " fill="#4a4a4a" transform="translate(155,190)"/>
</svg>
