<?xml version="1.0" encoding="UTF-8"?>
<svg version="1.1" xmlns="http://www.w3.org/2000/svg" width="512" height="512">
<path d="M0 0 C0.95279343 0.43282288 0.95279343 0.43282288 1.92483521 0.87438965 C3.93665514 1.79119973 5.94089207 2.72339023 7.9453125 3.65625 C9.31463157 4.28358468 10.68441918 4.90989771 12.0546875 5.53515625 C15.39873169 7.06373818 18.73616032 8.60618952 22.0703125 10.15625 C21.28649502 14.44803939 19.94453996 18.08619156 18.1953125 22.09375 C17.68226563 23.27839844 17.16921875 24.46304688 16.640625 25.68359375 C12.48094052 34.88249799 12.48094052 34.88249799 9.0703125 37.15625 C7.35195804 37.50602813 5.61988964 37.79114625 3.8828125 38.03125 C-4.62163985 39.51223643 -9.64712668 41.95477489 -14.703125 49.05859375 C-18.35853053 55.31003569 -18.76350664 61.03330562 -17.9296875 68.15625 C-16.00867891 74.82382834 -12.67155861 79.34770892 -6.73828125 82.9296875 C-2.09751437 84.95639237 2.76498393 85.9374701 7.71484375 86.90625 C12.00174031 88.50323126 12.97903067 90.14557252 15.0703125 94.15625 C15.98742042 96.29703448 16.84256395 98.46546193 17.6328125 100.65625 C18.84868705 104.0048881 20.07608065 107.16756446 21.6953125 110.34375 C23.44916869 113.93118312 23.56445008 116.20314932 23.0703125 120.15625 C21.3203125 123.15625 21.3203125 123.15625 19.0703125 126.15625 C15.10219643 132.48864428 13.17478634 137.5897029 14.0703125 145.15625 C15.94697903 152.79440229 19.43848488 157.9038703 26.0703125 162.15625 C32.3264577 165.41395444 38.24610202 165.78525508 45.0703125 164.15625 C49.13834664 162.64851707 52.34295879 160.81086834 55.5703125 157.90625 C58.99752575 155.50720072 62.05385015 155.66813516 66.0703125 156.15625 C68.88958417 157.00682825 71.48344618 158.19160639 74.1328125 159.46875 C75.47778907 160.09000726 76.82284058 160.71110231 78.16796875 161.33203125 C78.81652832 161.64092285 79.46508789 161.94981445 80.13330078 162.26806641 C82.0250772 163.13550813 83.93908573 163.88452266 85.87890625 164.63671875 C89.18202873 166.20944169 90.42147642 166.94800624 92.0703125 170.15625 C92.87890625 173.3984375 92.87890625 173.3984375 93.5078125 177.03125 C95.17166581 185.23166986 97.88768634 190.0546739 104.734375 194.890625 C110.98280114 198.2760599 118.1179639 198.95341197 124.9375 197.046875 C131.37222291 194.35984785 135.62176481 190.16637324 139.0703125 184.15625 C139.96384061 181.46581683 140.56249569 178.74360981 141.1328125 175.96875 C142.61867892 168.8119349 142.61867892 168.8119349 144.3671875 166.2734375 C146.5826487 164.82017625 148.70476616 164.16503537 151.2578125 163.46875 C152.60939453 163.09169922 152.60939453 163.09169922 153.98828125 162.70703125 C155.01888672 162.43439453 155.01888672 162.43439453 156.0703125 162.15625 C155.45603701 169.99878095 153.67571211 177.32072527 151.6328125 184.90625 C151.45835602 185.55597778 151.28389954 186.20570557 151.10415649 186.87512207 C136.95491889 239.27498812 114.01518422 288.22970789 78.0703125 329.15625 C77.20277344 330.14753906 76.33523438 331.13882812 75.44140625 332.16015625 C70.60617975 337.58594477 65.64720716 342.50883778 60.0703125 347.15625 C58.68972656 348.36861328 58.68972656 348.36861328 57.28125 349.60546875 C39.74596289 364.94675412 20.24444999 376.78348228 -0.9296875 386.46875 C-1.5575415 386.76499268 -2.18539551 387.06123535 -2.83227539 387.36645508 C-7.81504972 389.53853848 -10.98721255 389.25941768 -15.99853516 387.38061523 C-18.44070926 386.38092979 -20.84164847 385.31462817 -23.2421875 384.21875 C-24.12084473 383.81906006 -24.99950195 383.41937012 -25.90478516 383.00756836 C-49.72815888 371.94625612 -69.93964488 356.12611126 -88.9296875 338.15625 C-89.6103125 337.51816406 -90.2909375 336.88007813 -90.9921875 336.22265625 C-96.11892637 331.27392914 -100.49574795 325.72165738 -104.9296875 320.15625 C-105.81875108 319.05838368 -106.70808156 317.96073347 -107.59765625 316.86328125 C-157.12640749 255.3368822 -189.02445278 160.4531767 -187.9921875 80.96875 C-187.98316406 80.04707031 -187.97414062 79.12539062 -187.96484375 78.17578125 C-187.95324219 77.50933594 -187.94164062 76.84289062 -187.9296875 76.15625 C-175.95457301 69.92112147 -163.69207062 64.41782238 -151.33784485 58.98100281 C-142.71944891 55.18703681 -134.11634421 51.3585973 -125.5118103 47.5333252 C-122.54163831 46.21294904 -119.57124399 44.89307399 -116.60083008 43.57324219 C-105.10808483 38.46560695 -93.62424853 33.33897926 -82.15283203 28.18359375 C-74.64867433 24.81451164 -67.13520361 21.46693407 -59.6171875 18.12890625 C-58.61619019 17.68441132 -57.61519287 17.23991638 -56.5838623 16.7819519 C-51.58846593 14.56408814 -46.5924718 12.34758273 -41.59570312 10.1328125 C-40.66512085 9.71981903 -39.73453857 9.30682556 -38.77575684 8.88131714 C-36.96063438 8.07597579 -35.1449718 7.27185053 -33.32873535 6.46902466 C-29.49740301 4.77012532 -25.68097 3.05589434 -21.91015625 1.22607422 C-20.77191406 0.67580566 -19.63367188 0.12553711 -18.4609375 -0.44140625 C-17.51798828 -0.91199463 -16.57503906 -1.38258301 -15.60351562 -1.86743164 C-9.66650035 -4.0352662 -5.57541582 -2.56567808 0 0 Z M-49.62890625 45.4609375 C-50.39980087 45.81161285 -51.1706955 46.16228821 -51.96495056 46.52359009 C-53.63940541 47.28605662 -55.31234858 48.05184964 -56.98394775 48.82055664 C-61.49147842 50.89299895 -66.01008443 52.94106009 -70.52734375 54.9921875 C-71.46378723 55.41816223 -72.40023071 55.84413696 -73.36505127 56.28302002 C-82.51871938 60.44025964 -91.72018862 64.48513923 -100.93267822 68.50997925 C-105.21126289 70.38045946 -109.48622127 72.25919549 -113.76171875 74.13671875 C-118.10136196 76.04231036 -122.44120126 77.94715858 -126.79052734 79.83056641 C-129.94620693 81.19863559 -133.09500155 82.58128674 -136.2421875 83.96875 C-137.10086426 84.33484375 -137.95954102 84.7009375 -138.84423828 85.078125 C-139.61106934 85.41972656 -140.37790039 85.76132813 -141.16796875 86.11328125 C-141.80774658 86.39147705 -142.44752441 86.66967285 -143.10668945 86.95629883 C-145.72975684 88.68287927 -147.21930633 90.52635182 -148.9296875 93.15625 C-149.45644758 96.04108154 -149.45644758 96.04108154 -149.25390625 99.1171875 C-149.21700684 100.26413086 -149.18010742 101.41107422 -149.14208984 102.59277344 C-146.40715407 148.47682235 -136.22583655 194.75176397 -115.9296875 236.15625 C-115.54200195 236.9507959 -115.15431641 237.7453418 -114.75488281 238.56396484 C-106.90047517 254.48184504 -97.55767177 269.69352231 -85.9296875 283.15625 C-84.92421875 284.32607422 -84.92421875 284.32607422 -83.8984375 285.51953125 C-81.61883642 288.10886074 -79.28929372 290.63958021 -76.9296875 293.15625 C-76.23214355 293.90479248 -76.23214355 293.90479248 -75.52050781 294.66845703 C-59.75279238 311.45461179 -31.78701311 335.32575542 -7.76953125 337.43359375 C-3.07717529 337.09467486 0.29145846 335.70134428 4.5078125 333.71875 C5.28552002 333.36184082 6.06322754 333.00493164 6.86450195 332.63720703 C23.28994867 325.27982619 23.28994867 325.27982619 37.0703125 314.15625 C38.0705048 311.11213047 38.0705048 311.11213047 37.0703125 308.15625 C35.09064987 305.09317369 35.09064987 305.09317369 32.0703125 303.15625 C26.96971113 303.37329687 23.42592707 305.50919504 19.2578125 308.21875 C13.62915278 311.72403164 7.91857657 314.89941777 1.9453125 317.78125 C1.23528076 318.13582275 0.52524902 318.49039551 -0.20629883 318.85571289 C-3.00586045 320.17706852 -5.29915894 321.17401137 -8.42578125 321.0859375 C-11.98764485 319.76343588 -15.43369752 318.28294576 -18.8671875 316.65625 C-19.61427979 316.30240234 -20.36137207 315.94855469 -21.13110352 315.58398438 C-36.49444085 308.12995093 -49.45911029 297.73607169 -61.9296875 286.15625 C-62.52265625 285.61742187 -63.115625 285.07859375 -63.7265625 284.5234375 C-107.7033158 242.85022842 -125.26644436 175.12312815 -131.9296875 117.15625 C-132.03265137 116.27146973 -132.13561523 115.38668945 -132.24169922 114.47509766 C-132.8315382 109.37154615 -133.39350995 104.26570664 -133.9296875 99.15625 C-132.93884155 99.0161853 -132.93884155 99.0161853 -131.92797852 98.87329102 C-128.0475093 97.94527717 -124.56635707 96.34260305 -120.95703125 94.68359375 C-119.7818972 94.15129654 -119.7818972 94.15129654 -118.58302307 93.60824585 C-116.89188496 92.84157003 -115.20181061 92.07254431 -113.51269531 91.30142212 C-109.92871433 89.66533778 -106.33963499 88.04058853 -102.75076294 86.41526794 C-100.89949235 85.57677557 -99.04848165 84.73770915 -97.19772339 83.89808655 C-87.96170263 79.70983486 -78.69909388 75.58246705 -69.4296875 71.46875 C-67.98948966 70.82872231 -66.54930379 70.18866771 -65.10913086 69.54858398 C-64.41798691 69.24181229 -63.72684296 68.93504059 -63.01475525 68.61897278 C-61.66135337 68.01803173 -60.30836613 67.41615586 -58.95582581 66.8132782 C-55.48088535 65.26855543 -51.99545788 63.75683306 -48.48828125 62.28662109 C-47.76120972 61.9784697 -47.03413818 61.6703183 -46.28503418 61.35282898 C-44.90343989 60.76852463 -43.51859569 60.19182067 -42.13000488 59.62434387 C-38.32883369 58.00855147 -35.50174868 56.42484502 -32.9296875 53.15625 C-32.1796875 49.65625 -32.1796875 49.65625 -32.9296875 46.15625 C-35.05654679 43.6045214 -35.05654679 43.6045214 -37.9296875 42.15625 C-42.52307794 42.15625 -45.56397678 43.57154397 -49.62890625 45.4609375 Z " fill="#4a6cf7" transform="translate(230.9296875,90.84375)"/>
<path d="M0 0 C3.24502634 0.8125757 4.40447381 1.92749043 6.40234375 4.6015625 C7.23828125 7.73828125 7.23828125 7.73828125 7.77734375 11.2890625 C9.20624702 18.56210455 11.08036139 24.54666734 17.34765625 28.9765625 C19.97774298 30.36950042 22.64276459 31.48254655 25.40234375 32.6015625 C26.99192657 33.28011824 28.58037111 33.96134374 30.16796875 34.64453125 C44.62347811 41.61944126 44.62347811 41.61944126 60.0703125 40.625 C63.83636791 38.7676111 67.2283811 36.72534362 70.65234375 34.2890625 C73.99071894 32.24051409 75.55431836 31.88005774 79.40234375 32.6015625 C83.39296806 35.08629084 85.0889031 36.56905214 86.46484375 41.1015625 C86.3926922 45.14204912 85.76010509 46.37928867 83.40234375 49.6015625 C82.5170644 50.96996686 81.64271864 52.34548455 80.77734375 53.7265625 C80.13925781 54.72042969 80.13925781 54.72042969 79.48828125 55.734375 C76.43129008 60.99064039 76.61540804 66.73473285 77.40234375 72.6015625 C78.94864895 77.49263337 81.26332497 82.07428707 83.50048828 86.67822266 C84.82021198 89.49272816 85.91086837 92.38908013 87.02734375 95.2890625 C88.84898981 99.67406717 90.58719256 102.62388352 94.40234375 105.6015625 C95.24796875 106.3234375 96.09359375 107.0453125 96.96484375 107.7890625 C101.16574355 110.00408239 104.95040644 110.3911196 109.61328125 111.0390625 C113.08072517 111.73837892 115.03342895 112.98758755 117.40234375 115.6015625 C119.02341746 118.84370991 118.94823056 122.09710395 118.40234375 125.6015625 C116.28405802 129.13203872 114.41496531 130.32893362 110.45703125 131.39453125 C108.18380656 131.87185569 105.90900712 132.34173266 103.6328125 132.8046875 C97.25291942 134.37844589 92.26026729 137.61025708 88.6171875 143.19140625 C86.26283427 147.86226138 84.5731548 152.80788795 82.828125 157.73046875 C81.75043774 160.74380087 80.48671528 163.56235771 79.02734375 166.4140625 C76.43263288 172.13768941 76.35121865 178.13713996 78.16796875 184.125 C79.62531758 187.60644443 81.16602366 190.3179784 83.58984375 193.2265625 C86.00398944 196.38992582 86.33178677 198.65037143 86.40234375 202.6015625 C85.10735392 205.76709319 83.76982156 207.29533099 81.15234375 209.4765625 C77.32437184 211.04255101 75.38023263 210.74773387 71.40234375 209.6015625 C69.2760493 208.20833338 67.3363589 206.7138948 65.39453125 205.07421875 C60.65540776 201.57098432 55.88598967 200.94423727 50.125 201.015625 C42.88417908 202.1553135 36.32482894 205.45413073 29.7199707 208.5300293 C26.62540781 209.96077159 23.49751022 211.31194192 20.3671875 212.66235352 C14.46529204 215.48350061 11.59312695 219.26649459 9.1953125 225.12890625 C8.37093975 227.6994873 7.89736872 230.18895468 7.46484375 232.8515625 C6.8359278 236.30253721 6.32018724 237.72238089 4.27734375 240.7265625 C1.04251005 242.83623665 -0.77063819 243.160379 -4.53515625 243.16796875 C-7.66940142 242.30723854 -9.327391 240.91351876 -11.59765625 238.6015625 C-12.53125 235.46484375 -12.53125 235.46484375 -13.03515625 231.9140625 C-14.2870486 225.36203893 -15.68186897 220.29434562 -20.59765625 215.6015625 C-24.4211554 213.13186527 -28.39989484 211.34259293 -32.59765625 209.6015625 C-34.18126953 208.92287109 -34.18126953 208.92287109 -35.796875 208.23046875 C-37.83336002 207.36937032 -39.87750817 206.52612059 -41.9296875 205.703125 C-44.59765625 204.6015625 -44.59765625 204.6015625 -48.09765625 202.7890625 C-55.35233621 200.32765323 -62.24864802 200.56945837 -69.16015625 203.9140625 C-71.49116968 205.18865605 -73.32817775 206.32878964 -75.1953125 208.21875 C-77.42813797 210.42047762 -79.54214916 210.41823207 -82.59765625 210.6015625 C-85.99428617 209.65366578 -88.61778332 208.57137189 -90.59765625 205.6015625 C-92.27164571 198.79400538 -92.27164571 198.79400538 -89.97265625 194.7265625 C-89.18890625 193.6953125 -88.40515625 192.6640625 -87.59765625 191.6015625 C-83.54716452 185.03381602 -81.1668632 179.36041584 -82.59765625 171.6015625 C-83.57009452 168.641409 -84.73966124 165.86514534 -86.03515625 163.03125 C-87.21350005 160.44478536 -88.30471986 157.87487953 -89.34765625 155.234375 C-89.79806274 154.10044312 -89.79806274 154.10044312 -90.25756836 152.94360352 C-90.84644056 151.45637069 -91.4308048 149.96734269 -92.01000977 148.47631836 C-95.0079753 141.03228384 -98.5396803 137.12504581 -105.796875 133.65234375 C-108.71277728 132.55837204 -111.39488588 132.04242117 -114.47265625 131.6015625 C-118.01184976 131.04590411 -119.38003165 130.76857673 -122.28515625 128.5390625 C-124.11673904 124.43980577 -124.6128105 121.00589315 -123.59765625 116.6015625 C-119.57824481 111.49582365 -115.4660288 110.96102314 -109.21875 110.0625 C-105.9573208 109.48895507 -103.44383997 108.26762126 -100.59765625 106.6015625 C-99.85515625 106.2921875 -99.11265625 105.9828125 -98.34765625 105.6640625 C-95.16327358 103.73068731 -94.19699709 99.74431414 -92.79296875 96.40625 C-92.45845703 95.61275146 -92.12394531 94.81925293 -91.77929688 94.00170898 C-90.36154918 90.61359336 -88.95127546 87.22237489 -87.54003906 83.83154297 C-86.78136816 82.0362839 -85.98791203 80.25574584 -85.18359375 78.48046875 C-82.3167798 72.0352935 -81.21873363 66.09965234 -83.328125 59.21875 C-84.91279294 55.40261089 -86.8313263 52.18314072 -89.34765625 48.9140625 C-91.15893312 46.49343631 -91.5990025 45.59314843 -92.09765625 42.4765625 C-91.39573771 38.44053091 -90.14810733 35.72430294 -86.78515625 33.2890625 C-83.81784802 32.35647991 -81.70081469 32.22918349 -78.59765625 32.6015625 C-75.66015625 34.3515625 -75.66015625 34.3515625 -72.59765625 36.6015625 C-65.81218624 40.76273749 -60.55776765 42.55023331 -52.59765625 41.6015625 C-49.6221819 40.65094534 -46.8666637 39.46181851 -44.02734375 38.16015625 C-41.4398091 36.98427205 -38.87764739 35.90993527 -36.23046875 34.88671875 C-35.09653687 34.44307983 -35.09653687 34.44307983 -33.93969727 33.99047852 C-32.45381233 33.41105182 -30.964817 32.83952024 -29.47241211 32.27709961 C-22.63465972 29.55526033 -18.05186219 25.15264274 -14.59765625 18.6015625 C-14.23602657 16.60985965 -13.9280158 14.60802892 -13.66015625 12.6015625 C-12.32903299 3.60809107 -9.44922235 -0.08735799 0 0 Z M-49.59765625 64.6015625 C-50.31566406 65.15585938 -51.03367187 65.71015625 -51.7734375 66.28125 C-65.4601458 77.39007344 -73.30876386 94.49245156 -76.28515625 111.5390625 C-76.41379369 112.89112406 -76.51571874 114.24586921 -76.59765625 115.6015625 C-76.65050781 116.47039062 -76.70335937 117.33921875 -76.7578125 118.234375 C-77.3873888 138.7640369 -69.98313342 157.69023121 -56.10668945 172.66235352 C-41.98647663 187.25935822 -23.37079461 194.85255885 -3.18359375 195.62890625 C16.11754117 195.85486675 34.0751862 188.07914219 48.02734375 174.93359375 C48.81109375 174.16402344 49.59484375 173.39445312 50.40234375 172.6015625 C51.45421875 171.58642578 51.45421875 171.58642578 52.52734375 170.55078125 C66.2360756 156.33332693 71.73256065 136.99134094 71.40234375 117.6015625 C70.60896626 101.91969679 64.86974187 88.00776004 55.40234375 75.6015625 C54.85964844 74.87582031 54.31695312 74.15007812 53.7578125 73.40234375 C41.85284422 58.65872123 22.99917499 49.7780447 4.40234375 47.6015625 C-15.79491675 46.20864798 -33.9031466 51.8762844 -49.59765625 64.6015625 Z " fill="#4a6cf7" transform="translate(350.59765625,31.3984375)"/>
<path d="M0 0 C12.47032077 10.52871384 20.26762402 24.94386427 21.75 41.25 C22.71687786 56.78047555 18.06356187 70.87182138 8.75 83.25 C8.30011719 83.86488281 7.85023438 84.47976562 7.38671875 85.11328125 C-1.16545412 95.97815439 -15.45235075 102.98841277 -29.01171875 104.734375 C-46.08321845 105.88946155 -60.32958969 102.72396443 -74.25 92.25 C-74.86488281 91.80011719 -75.47976563 91.35023438 -76.11328125 90.88671875 C-81.27733822 86.82188455 -84.77218287 81.77972923 -88.25 76.25 C-88.641875 75.63640625 -89.03375 75.0228125 -89.4375 74.390625 C-97.08400708 60.88976094 -97.86639726 44.58439497 -94.33984375 29.828125 C-89.79380716 14.90278623 -80.74703868 2.66465707 -67.21875 -5.28515625 C-44.68436614 -16.40409565 -20.32778423 -15.3388006 0 0 Z M-17.82595825 24.68981934 C-19.63082278 26.48227356 -21.39894035 28.30527334 -23.16015625 30.140625 C-24.49241385 31.50301959 -25.82510914 32.8649863 -27.15820312 34.2265625 C-29.24595366 36.37029879 -31.32954962 38.51769994 -33.40551758 40.67285156 C-35.41690476 42.75648855 -37.44341384 44.82439444 -39.47265625 46.890625 C-40.09253922 47.5425885 -40.71242218 48.194552 -41.35108948 48.86627197 C-41.93527145 49.45728699 -42.51945343 50.048302 -43.12133789 50.65722656 C-43.88481285 51.44640472 -43.88481285 51.44640472 -44.66371155 52.25152588 C-46.25 53.25 -46.25 53.25 -48.29759216 53.05267334 C-52.23871839 51.43239868 -54.80843868 47.59930904 -57.6171875 44.5 C-60.62627956 41.92843171 -62.32889734 41.37856074 -66.25 41.25 C-69.25979883 42.59115399 -69.25979883 42.59115399 -71.25 45.25 C-71.73125694 49.29693334 -71.79342573 51.44833477 -69.47753906 54.86474609 C-68.66510742 55.65961426 -67.85267578 56.45448242 -67.015625 57.2734375 C-66.13132812 58.14871094 -65.24703125 59.02398437 -64.3359375 59.92578125 C-63.40007812 60.81652344 -62.46421875 61.70726562 -61.5 62.625 C-60.57960938 63.53894531 -59.65921875 64.45289063 -58.7109375 65.39453125 C-53.80016733 70.88097401 -53.80016733 70.88097401 -47.25 73.25 C-43.77004474 71.39578684 -41.01921995 69.28344268 -38.20996094 66.53222656 C-37.45277771 65.79425842 -36.69559448 65.05629028 -35.91546631 64.29595947 C-34.71207611 63.10531891 -34.71207611 63.10531891 -33.484375 61.890625 C-32.6503717 61.06802185 -31.81636841 60.2454187 -30.95709229 59.39788818 C-29.19938518 57.6590391 -27.44454287 55.91729002 -25.69238281 54.17285156 C-23.00948656 51.50941775 -20.30602969 48.86806647 -17.6015625 46.2265625 C-15.8945181 44.53257435 -14.18874512 42.8373038 -12.484375 41.140625 C-11.67401794 40.35496155 -10.86366089 39.5692981 -10.02874756 38.75982666 C-5.38991823 34.23774466 -5.38991823 34.23774466 -3.12988281 28.34277344 C-2.97006017 25.18529973 -2.97006017 25.18529973 -4.9375 22.875 C-10.27472939 19.12451449 -13.06155763 20.33699074 -17.82595825 24.68981934 Z " fill="#4a6cf7" transform="translate(385.25,106.75)"/>
</svg>
