<?xml version="1.0" encoding="UTF-8"?>
<svg version="1.1" xmlns="http://www.w3.org/2000/svg" width="512" height="512">
<path d="M0 0 C1.5408278 -0.14295234 1.5408278 -0.14295234 3.11278343 -0.28879261 C16.66776179 -1.48761835 30.24163819 -2.20779848 43.83935547 -2.69580078 C45.80062 -2.76801031 45.80062 -2.76801031 47.80150604 -2.84167862 C78.91220802 -3.85475514 105.99593104 -3.71231397 129.7116394 18.40136719 C139.98410306 28.4431689 149.35550454 39.84948493 157.48327637 51.69230652 C157.91276014 52.30753614 158.34224392 52.92276577 158.78474236 53.55663872 C159.92140505 55.20284005 161.02617829 56.87093645 162.12808228 58.54060364 C167.24212881 63.75811145 174.09200583 64.51438316 181.15843105 64.59261799 C182.06578031 64.58776984 182.97312956 64.5829217 183.90797424 64.57792664 C184.89335175 64.58456833 185.87872925 64.59121002 186.89396667 64.59805298 C190.18519514 64.61664516 193.47605894 64.61405937 196.76733398 64.61157227 C199.171389 64.62068112 201.57543937 64.63109489 203.9794836 64.64270496 C210.4058986 64.67014934 216.83222375 64.67978008 223.25868988 64.68567657 C229.2933983 64.69392529 235.32800003 64.71829828 241.3626709 64.74133301 C259.0006867 64.79929173 276.63877972 64.83142375 294.27685547 64.86669922 C353.39841797 65.02138672 353.39841797 65.02138672 413.71435547 65.17919922 C413.71435547 162.85919922 413.71435547 260.53919922 413.71435547 361.17919922 C410.71435547 361.17919922 410.71435547 361.17919922 408.72114563 359.54675293 C407.96391708 358.78286255 407.20668854 358.01897217 406.42651367 357.23193359 C405.56584793 356.37104126 404.70518219 355.51014893 403.81843567 354.62316895 C402.89334702 353.68259644 401.96825836 352.74202393 401.01513672 351.77294922 C400.05600901 350.80822673 399.0962171 349.84416417 398.13578796 348.8807373 C395.60890753 346.34239876 393.09116471 343.79518039 390.57519531 341.24603271 C388.00657886 338.64673624 385.42945606 336.05590449 382.85302734 333.46435547 C377.79842114 328.37756807 372.75343456 323.2813735 367.71435547 318.17919922 C369.17920447 314.45568288 370.82544216 310.89600197 372.58935547 307.30419922 C380.75684253 289.3477387 383.16583189 268.78864083 377.11279297 249.70654297 C373.19736726 239.83048316 368.64780848 230.30674691 361.71435547 222.17919922 C361.29154297 221.61458984 360.86873047 221.04998047 360.43310547 220.46826172 C349.25572148 206.10662299 330.39892084 197.47185668 312.73681641 194.89013672 C289.7917456 192.1102747 268.83932375 198.65541386 250.67919922 212.49169922 C234.77168735 226.09474734 225.03348206 245.10550396 223.05615234 265.95410156 C221.42853093 287.44797544 227.80265577 307.70902601 241.71435547 324.17919922 C242.16166016 324.77087891 242.60896484 325.36255859 243.06982422 325.97216797 C253.62684994 339.50125958 272.85191427 349.00028416 289.71435547 351.17919922 C307.93980271 352.65362467 323.40866494 350.76005922 339.43896484 341.64599609 C341.35107422 340.59326172 341.35107422 340.59326172 344.71435547 339.17919922 C348.22672814 340.36720275 350.44516483 342.6674231 353.02392578 345.26171875 C353.86449524 346.10243927 354.7050647 346.94315979 355.57110596 347.80935669 C356.46915955 348.71773285 357.36721313 349.62610901 358.29248047 350.56201172 C359.21905457 351.49141571 360.14562866 352.4208197 361.10028076 353.37838745 C363.55751336 355.84323772 366.00867908 358.31403588 368.45861816 360.78613281 C370.96209356 363.31010687 373.4712761 365.8283931 375.97998047 368.34716797 C380.89703072 373.28563519 385.80769335 378.23041122 390.71435547 383.17919922 C390.38435547 383.83919922 390.05435547 384.49919922 389.71435547 385.17919922 C338.92695651 385.27075024 288.13956589 385.34123567 237.35210065 385.38346054 C231.35647842 385.38846338 225.36085636 385.39364066 219.36523438 385.39892578 C218.17161157 385.39997502 216.97798877 385.40102426 215.74819557 385.4021053 C196.42001186 385.41951158 177.09187572 385.45105052 157.76372023 385.4878104 C137.93195728 385.52521358 118.10021926 385.54743376 98.26842248 385.5555532 C86.03067096 385.56104225 73.79305392 385.57838042 61.55534379 385.61086509 C53.16403183 385.63200524 44.77278941 385.63840037 36.38145275 385.63320473 C31.53973457 385.6306422 26.69825143 385.63457665 21.85657501 385.65602112 C17.42108006 385.6755229 12.98597766 385.67644571 8.55046444 385.6627948 C6.94867412 385.66110828 5.34685906 385.66615174 3.74511726 385.67873195 C-7.50579809 385.76193573 -17.20518115 384.8669669 -25.75439453 376.88232422 C-31.37442899 370.63146956 -34.53113065 363.69345183 -34.54291344 355.22140884 C-34.54936233 354.04520863 -34.55581122 352.86900841 -34.56245553 351.65716577 C-34.55935833 350.37410538 -34.55626113 349.091045 -34.55307007 347.769104 C-34.5568082 346.38511716 -34.56141037 345.00113242 -34.56680071 343.61715102 C-34.57902618 339.81906018 -34.57877078 336.02105744 -34.57641196 332.22295141 C-34.57600368 328.12465402 -34.58704409 324.02638483 -34.5965271 319.92810059 C-34.61313584 311.90039619 -34.6186366 303.87272116 -34.61975186 295.84500101 C-34.62070244 289.31871865 -34.62481325 282.79244598 -34.63115311 276.26616669 C-34.64876557 257.75885775 -34.65799203 239.251572 -34.65649216 220.74425462 C-34.65641225 219.74664376 -34.65633233 218.7490329 -34.65625 217.72119141 C-34.65616824 216.72236096 -34.65608648 215.72353051 -34.65600224 214.69443247 C-34.65518945 198.50934732 -34.67432527 182.32435526 -34.70252673 166.13929704 C-34.731262 149.51656975 -34.74506666 132.89388785 -34.74333918 116.27113509 C-34.74267548 106.94036284 -34.74815912 97.60968816 -34.76969528 88.27893829 C-34.78791558 80.33394353 -34.79224749 72.38909058 -34.77867644 64.44408396 C-34.77215091 60.39217096 -34.77201436 56.34052993 -34.78938293 52.28864288 C-34.8051375 48.57501076 -34.80222616 44.86186572 -34.78481467 41.1482453 C-34.78030467 39.17755103 -34.79538345 37.2068415 -34.81129396 35.23620629 C-34.73487972 25.3775909 -32.8670795 17.07510434 -25.98876953 9.71044922 C-18.31861528 2.81434723 -10.02523999 0.90806444 0 0 Z M0.33935547 40.80419922 C-1.86472346 45.38190161 -2.08280844 49.18472333 -1.28564453 54.17919922 C1.04404478 59.0177847 3.87576999 61.84950991 8.71435547 64.17919922 C13.70883136 64.97636312 17.51165307 64.75827815 22.08935547 62.55419922 C25.6734326 59.31146277 28.30970788 56.71444025 29.09716797 51.78076172 C29.35319466 46.09696928 28.65062478 42.52981267 24.71435547 38.17919922 C20.36374201 34.2429299 16.79658541 33.54036003 11.11279297 33.79638672 C6.17911443 34.58384681 3.58209192 37.22012209 0.33935547 40.80419922 Z M64.33935547 40.80419922 C62.13527654 45.38190161 61.91719156 49.18472333 62.71435547 54.17919922 C65.04404478 59.0177847 67.87576999 61.84950991 72.71435547 64.17919922 C77.70883136 64.97636312 81.51165307 64.75827815 86.08935547 62.55419922 C89.6734326 59.31146277 92.30970788 56.71444025 93.09716797 51.78076172 C93.35319466 46.09696928 92.65062478 42.52981267 88.71435547 38.17919922 C84.36374201 34.2429299 80.79658541 33.54036003 75.11279297 33.79638672 C70.17911443 34.58384681 67.58209192 37.22012209 64.33935547 40.80419922 Z M52.71435547 141.17919922 C44.57037684 152.14145035 45.44023491 165.18893052 45.71435547 178.17919922 C44.62767578 178.29650391 43.54099609 178.41380859 42.42138672 178.53466797 C37.49872381 179.39055773 36.18757778 180.7059769 32.71435547 184.17919922 C29.9779118 188.63409215 30.07125228 193.09868401 30.71435547 198.17919922 C33.04964748 203.02942108 35.97378687 205.66379547 40.71435547 208.17919922 C43.34217236 208.31501379 43.34217236 208.31501379 45.71435547 208.17919922 C45.69115234 209.27876953 45.66794922 210.37833984 45.64404297 211.51123047 C45.43411051 225.33387316 45.70865673 237.07736569 55.31201172 247.99560547 C61.41133809 253.74887077 68.65196498 256.37018842 76.96435547 256.67919922 C81.97717496 256.48639847 84.97565937 255.73096051 88.71435547 252.17919922 C92.65062478 247.82858576 93.35319466 244.26142916 93.09716797 238.57763672 C92.28866251 233.51210249 89.63857251 230.92643853 85.77685547 227.80419922 C82.60193767 226.11954896 81.19513884 226.02606831 77.71435547 226.17919922 C77.73755859 225.06802734 77.76076172 223.95685547 77.78466797 222.81201172 C77.92427331 213.26515419 77.68898055 204.63292564 74.40185547 195.55419922 C73.60000967 191.61786529 74.20777525 189.89889706 75.89013672 186.36669922 C78.07570484 180.56613929 77.84487566 174.34781965 77.77685547 168.24169922 C77.77234375 167.46246094 77.76783203 166.68322266 77.76318359 165.88037109 C77.75152455 163.97994653 77.73359424 162.07956216 77.71435547 160.17919922 C79.344375 160.00324219 79.344375 160.00324219 81.00732422 159.82373047 C85.92998713 158.96784071 87.24113315 157.65242153 90.71435547 154.17919922 C93.45079914 149.72430628 93.35745866 145.25971443 92.71435547 140.17919922 C90.38141001 135.33385095 87.5942254 132.44485312 82.71435547 130.17919922 C70.8307793 128.49626502 60.66831106 132.23321354 52.71435547 141.17919922 Z M131.10107422 149.64404297 C127.01203362 154.35507848 126.35856772 157.59123256 126.43701172 163.64013672 C126.84811991 167.40380324 128.19721907 169.39710109 130.71435547 172.17919922 C138.72460077 178.48513701 147.99697597 177.69618296 157.71435547 177.17919922 C162.78071535 176.36582444 166.31547221 175.03259571 169.71435547 171.11669922 C173.14151367 166.08306062 173.37204207 162.2002737 172.71435547 156.17919922 C170.36642889 151.30273632 167.42674693 148.77582308 162.71435547 146.17919922 C153.60346956 143.74425449 138.4940836 142.93126205 131.10107422 149.64404297 Z M211.10107422 149.64404297 C207.01203362 154.35507848 206.35856772 157.59123256 206.43701172 163.64013672 C206.84811991 167.40380324 208.19721907 169.39710109 210.71435547 172.17919922 C218.72460077 178.48513701 227.99697597 177.69618296 237.71435547 177.17919922 C242.78071535 176.36582444 246.31547221 175.03259571 249.71435547 171.11669922 C253.14151367 166.08306062 253.37204207 162.2002737 252.71435547 156.17919922 C250.36642889 151.30273632 247.42674693 148.77582308 242.71435547 146.17919922 C233.60346956 143.74425449 218.4940836 142.93126205 211.10107422 149.64404297 Z M129.71435547 215.24169922 C126.28719727 220.27533782 126.05666887 224.15812473 126.71435547 230.17919922 C129.06228205 235.05566212 132.00196401 237.58257535 136.71435547 240.17919922 C140.02841746 241.00498467 143.136964 241.31175763 146.54541016 241.34033203 C147.47697937 241.34993958 148.40854858 241.35954712 149.36834717 241.3694458 C150.36424866 241.37369568 151.36015015 241.37794556 152.38623047 241.38232422 C153.941716 241.39087433 153.941716 241.39087433 155.52862549 241.39959717 C157.72073349 241.40902975 159.91285557 241.41557422 162.10498047 241.41943359 C165.43856902 241.42912426 168.77153685 241.46015865 172.10498047 241.49169922 C174.2403935 241.49823149 176.37581091 241.50348108 178.51123047 241.50732422 C179.49903503 241.51967102 180.4868396 241.53201782 181.50457764 241.54473877 C187.97359219 241.52417681 195.27308864 241.25579082 200.33856201 236.72711182 C204.39368919 231.98044882 205.0703486 228.7830032 204.99169922 222.71826172 C204.58059103 218.9545952 203.23149187 216.96129734 200.71435547 214.17919922 C195.55800506 210.11994465 191.325335 209.07207263 184.88330078 209.01806641 C183.95173157 209.00845886 183.02016235 208.99885132 182.06036377 208.98895264 C181.06446228 208.98470276 180.06856079 208.98045288 179.04248047 208.97607422 C178.00549011 208.97037415 176.96849976 208.96467407 175.90008545 208.95880127 C173.70797744 208.94936868 171.51585537 208.94282422 169.32373047 208.93896484 C165.99014192 208.92927418 162.65717409 208.89823979 159.32373047 208.86669922 C157.18831744 208.86016694 155.05290003 208.85491735 152.91748047 208.85107422 C151.9296759 208.83872742 150.94187134 208.82638062 149.9241333 208.81365967 C142.54447598 208.83711614 134.79365488 209.29620812 129.71435547 215.24169922 Z M131.10107422 277.64404297 C127.01203362 282.35507848 126.35856772 285.59123256 126.43701172 291.64013672 C126.84811991 295.40380324 128.19721907 297.39710109 130.71435547 300.17919922 C138.72460077 306.48513701 147.99697597 305.69618296 157.71435547 305.17919922 C162.78071535 304.36582444 166.31547221 303.03259571 169.71435547 299.11669922 C173.14151367 294.08306062 173.37204207 290.2002737 172.71435547 284.17919922 C170.36642889 279.30273632 167.42674693 276.77582308 162.71435547 274.17919922 C153.60346956 271.74425449 138.4940836 270.93126205 131.10107422 277.64404297 Z " fill="#4a6cf7" transform="translate(66.28564453125,62.82080078125)"/>
<path d="M0 0 C30.65912791 -0.09131407 61.31822463 -0.16207152 91.97745612 -0.20426132 C95.59971706 -0.20926395 99.22197774 -0.21444126 102.84423828 -0.21972656 C103.56534395 -0.2207758 104.28644962 -0.22182505 105.02940698 -0.22290608 C116.69477357 -0.24029597 128.36006106 -0.2718258 140.02538078 -0.30861118 C152.00129555 -0.34606012 163.97716898 -0.36824419 175.9531399 -0.37635398 C182.67726333 -0.38134275 189.40122201 -0.39330904 196.1252861 -0.42292023 C202.45684866 -0.45011045 208.78815847 -0.45843753 215.11977386 -0.45243073 C217.44089507 -0.45352933 219.76202491 -0.46146142 222.08309555 -0.4768219 C225.25910454 -0.49680569 228.43416679 -0.49190803 231.61019897 -0.48101807 C232.52268005 -0.49266943 233.43516112 -0.5043208 234.37529314 -0.51632524 C243.15111728 -0.43532744 250.99032506 2.24627057 257.46875 8.296875 C263.93178072 15.48534795 266.10700038 22.50614854 266 32 C236.59219821 32.71062027 207.1848063 33.25752863 177.7701917 33.58302521 C174.28013002 33.62178676 170.79008526 33.66191175 167.30004883 33.70288086 C166.60538598 33.71101248 165.91072313 33.71914411 165.19500989 33.72752214 C154.01648442 33.86161169 142.84301396 34.10553754 131.6674658 34.39173668 C120.15818194 34.68397428 108.65241026 34.85197755 97.1394878 34.91674334 C90.68753282 34.95682901 84.24694273 35.04940565 77.79867363 35.27763176 C33.97784012 36.77066638 33.97784012 36.77066638 18.43244344 22.86639243 C11.53238632 16.22972668 5.38585544 8.91125794 0 1 C0 0.67 0 0.34 0 0 Z " fill="#4a6cf7" transform="translate(214,64)"/>
<path d="M0 0 C10.23906578 7.73254248 18.72711365 17.59665562 20.6875 30.6875 C22.11678455 48.13329299 19.50517553 61.04058775 8.03125 74.65234375 C0.02533375 83.28136197 -10.26078398 88.35475631 -21.96875 89.00390625 C-38.65548452 89.56319388 -50.64291019 85.89777041 -63.0625 74.375 C-73.05541038 63.81645319 -75.82689781 52.26922077 -75.73217773 38.15722656 C-75.32139743 24.03483761 -69.475381 12.95884274 -59.25 3.28125 C-42.59283172 -10.42061423 -18.05009418 -11.9794347 0 0 Z " fill="#4a6cf7" transform="translate(395.3125,295.3125)"/>
</svg>
