<?xml version="1.0" encoding="UTF-8"?>
<svg version="1.1" xmlns="http://www.w3.org/2000/svg" width="512" height="512">
<path d="M0 0 C1.06013276 -0.00445784 2.12026552 -0.00891569 3.21252352 -0.01350862 C4.37621712 -0.01332426 5.53991072 -0.01313989 6.73886776 -0.01294994 C7.97592415 -0.01662663 9.21298055 -0.02030332 10.4875235 -0.02409142 C13.92334116 -0.03321188 17.35911108 -0.03782656 20.7949363 -0.04048073 C24.49995834 -0.04438688 28.20496659 -0.05396506 31.90997982 -0.0626936 C40.8591262 -0.08245007 49.80827369 -0.09252355 58.75743642 -0.10142139 C62.97341495 -0.10580595 67.18939222 -0.11117236 71.40536976 -0.11641026 C85.42340395 -0.13342234 99.44143736 -0.14791576 113.45948029 -0.155159 C117.09671244 -0.15706884 120.73394459 -0.15898918 124.37117672 -0.16094494 C125.27517619 -0.16142868 126.17917566 -0.16191242 127.11056905 -0.16241082 C141.74960512 -0.17070832 156.3885594 -0.19604059 171.02755976 -0.22852562 C186.06255615 -0.2616169 201.097511 -0.27960966 216.13254398 -0.28280324 C224.57192236 -0.28496651 233.01118149 -0.29368821 241.45052433 -0.31926441 C248.63905879 -0.34099977 255.82744503 -0.34900795 263.01600862 -0.33929763 C266.68122233 -0.33476099 270.34613044 -0.33660158 274.01130199 -0.35605907 C277.9923123 -0.37700992 281.97290455 -0.36667935 285.95395565 -0.35352612 C287.1020342 -0.36449536 288.25011274 -0.37546461 289.43298155 -0.38676625 C302.24626228 -0.28480899 312.47434172 4.274099 321.7947607 13.01312733 C332.51492821 24.47421354 334.09425535 37.03042456 334.06551266 52.11224842 C334.06986546 53.62427998 334.0750505 55.13630934 334.08100033 56.64833546 C334.09434083 60.73727079 334.09497451 64.8261134 334.09243703 68.91506624 C334.0913639 72.33682956 334.09625943 75.75857439 334.10104245 79.18033373 C334.11212063 87.25742496 334.11258463 95.33446968 334.10652828 103.41156483 C334.10048997 111.72539176 334.11279973 120.0390494 334.13409835 128.35284746 C334.1517504 135.50810614 334.15771002 142.66331112 334.15446061 149.81859076 C334.15265327 154.08446557 334.15522878 158.3502196 334.16917515 162.61607456 C334.18180763 166.62989438 334.17975855 170.6434515 334.16676426 174.65726757 C334.16441064 176.12372714 334.16708926 177.59020551 334.17538738 179.05664349 C334.25414449 194.06591215 331.09462712 206.08878621 320.72054195 217.28656483 C310.45463833 227.11606364 297.72840402 229.75197234 283.88117123 229.64215565 C282.64938123 229.64839561 281.41759124 229.65463557 280.14847428 229.66106462 C276.76881922 229.67415147 273.39006798 229.66958897 270.01047003 229.65711975 C266.35055493 229.64800276 262.69071411 229.66207159 259.03081417 229.67303944 C251.8769862 229.69075836 244.72332678 229.68701457 237.56949239 229.67538887 C231.75229044 229.6663293 225.9351355 229.66514142 220.1179285 229.66948414 C219.28777082 229.67009707 218.45761313 229.67071 217.60229914 229.67134151 C215.91549085 229.6726205 214.22868257 229.67391735 212.5418743 229.67523187 C196.75196665 229.68661807 180.96215213 229.67355445 165.17225976 229.65203041 C151.64249018 229.63415789 138.11285789 229.63726859 124.58309078 229.65570545 C108.84541141 229.67714118 93.10781348 229.68552309 77.37012154 229.6732564 C75.69006925 229.67198229 74.01001695 229.6707248 72.32996464 229.66948414 C71.09025393 229.66855849 71.09025393 229.66855849 69.82549856 229.66761413 C64.01905888 229.66416958 58.21267114 229.66997015 52.40623951 229.67940235 C45.32479131 229.69065366 38.24352032 229.68751664 31.16209226 229.66627938 C27.55341633 229.65581135 23.94503522 229.65157385 20.33636189 229.66487598 C16.41526145 229.67911056 12.4946373 229.66204413 8.57355404 229.64215565 C7.44620026 229.65107853 6.31884647 229.66000142 5.15733045 229.6691947 C-7.51384771 229.54501609 -17.75080496 225.5631839 -27.20914555 217.13422108 C-38.42829691 205.18519927 -40.51234835 193.14247044 -40.49967289 177.20380116 C-40.50566513 175.69663634 -40.51247226 174.18947457 -40.52002811 172.68231678 C-40.53762724 168.60558481 -40.54238099 164.52893691 -40.54365969 160.45217061 C-40.54508561 157.89916925 -40.54936359 155.34618897 -40.55465412 152.79319286 C-40.57313615 143.86933897 -40.58132726 134.94554465 -40.57975101 126.02167225 C-40.57855098 117.73171967 -40.59963094 109.44202801 -40.63123834 101.15214139 C-40.65748161 94.01212089 -40.66811491 86.87218517 -40.6668402 79.73211688 C-40.66633281 75.47783703 -40.67189108 71.22378913 -40.6931963 66.96955776 C-40.71271438 62.96306003 -40.71261172 58.95701223 -40.69816303 54.95049763 C-40.69609034 53.49013001 -40.70068266 52.02973321 -40.71288395 50.56941509 C-40.83072461 35.47313918 -37.76731674 23.41327494 -27.4005518 12.17328358 C-20.00537768 5.13172485 -10.29853191 0.02010883 0 0 Z M202.72835445 67.25922108 C200.49978494 69.98831075 200.49978494 69.98831075 200.79085445 73.25922108 C201.83152397 76.25114594 202.33016031 77.245043 204.79085445 79.13422108 C212.28205114 81.09895289 220.08140706 81.44747176 227.79085445 81.13422108 C224.08413865 84.93811669 220.21222466 88.44617625 216.16585445 91.88422108 C215.55121334 92.40862782 214.93657223 92.93303455 214.30330563 93.47333241 C208.86079688 98.10316842 203.3406483 102.63372356 197.79085445 107.13422108 C195.95682191 108.63336608 194.12349464 110.1333743 192.29085445 111.63422108 C189.49606283 113.92195765 186.70010155 116.20817243 183.90022945 118.48968983 C182.9566357 119.25926014 182.01304195 120.02883045 181.04085445 120.82172108 C180.13593258 121.55519764 179.2310107 122.2886742 178.29866695 123.04437733 C176.09294241 124.88248111 174.00957845 126.79692131 171.91585445 128.75922108 C168.79085445 131.13422108 168.79085445 131.13422108 166.59017086 131.02655506 C162.79443871 129.81659509 159.40012122 128.07680237 155.87679195 126.23187733 C155.11315838 125.83818455 154.3495248 125.44449177 153.56275082 125.0388689 C151.09397263 123.76413109 148.62989141 122.48059593 146.16585445 121.19672108 C144.47852437 120.32318863 142.79094266 119.45014204 141.10311031 118.57758045 C131.12281625 113.41221159 121.15727555 108.21761201 111.2322607 102.94672108 C110.09659664 102.34859608 108.96093258 101.75047108 107.79085445 101.13422108 C106.76862789 100.53609608 105.74640133 99.93797108 104.6931982 99.32172108 C101.0230767 97.82008321 99.52803834 97.78654095 95.79085445 99.13422108 C93.25224538 101.1186795 91.10385662 103.40045974 88.91585445 105.75922108 C87.67291396 107.05266918 86.42813986 108.34435795 85.18147945 109.63422108 C84.29686031 110.5565453 84.29686031 110.5565453 83.39437008 111.49750233 C81.56891726 113.36075381 79.66250554 115.08136302 77.66585445 116.75922108 C74.18192606 119.70486011 70.99429242 122.89125889 67.79085445 126.13422108 C64.58741648 129.37718327 61.39978285 132.56358205 57.91585445 135.50922108 C53.91445292 138.94142112 50.12501151 142.57856153 46.35335445 146.25922108 C45.72509762 146.85782948 45.09684078 147.45643787 44.44954586 148.07318592 C40.07757231 152.31336789 40.07757231 152.31336789 38.79085445 158.13422108 C39.93100799 161.45966889 40.75768158 162.11210583 43.79085445 164.13422108 C48.38270323 164.18934531 50.98496357 163.31678921 54.2556982 160.22015858 C55.42808232 158.99722776 56.58517691 157.75949681 57.72835445 156.50922108 C58.9608937 155.21710289 60.19525161 153.92671691 61.43147945 152.63812733 C62.01478024 152.02340565 62.59808102 151.40868397 63.19905758 150.77533436 C65.03534191 148.88215901 66.96016103 147.14383828 68.97835445 145.44672108 C72.77286728 142.2372295 76.23192231 138.72131919 79.71858883 135.18695545 C82.97922972 131.89910477 86.34545609 128.81915712 89.8885107 125.84125233 C92.73189133 123.2897999 95.23114481 120.4217841 97.73616695 117.54047108 C99.79085445 116.13422108 99.79085445 116.13422108 102.527915 116.35712147 C106.0719928 117.20117681 108.83073072 118.46502255 112.0525732 120.16156483 C112.92866489 120.61845188 112.92866489 120.61845188 113.82245541 121.08456898 C115.71201278 122.07240339 117.59514506 123.07184633 119.47835445 124.07172108 C120.78509937 124.75791832 122.09223124 125.44337914 123.39974117 126.12811756 C126.61754315 127.81543394 129.83044797 129.51184181 133.04213619 131.21075916 C135.53678113 132.52812951 138.03667235 133.83538843 140.5369482 135.14203358 C142.16336645 135.99337419 143.78967649 136.84492158 145.41585445 137.69672108 C146.17108395 138.09222157 146.92631344 138.48772205 147.70442867 138.89520741 C152.70187631 141.52559107 157.61949463 144.27301074 162.4666357 147.17328358 C165.4447432 148.40456836 167.59495861 148.47330817 170.79085445 148.13422108 C172.82647467 147.14433036 172.82647467 147.14433036 174.60335445 145.50922108 C175.36519039 144.87500233 176.12702633 144.24078358 176.9119482 143.58734608 C177.86198727 142.77781483 178.81202633 141.96828358 179.79085445 141.13422108 C181.11301188 140.04317663 182.43741776 138.95485377 183.7635107 137.86859608 C186.73378712 135.43499575 189.6987272 132.99520357 192.65804195 130.54828358 C196.71347098 127.19591764 200.78474823 123.86336856 204.86116695 120.53656483 C207.17435952 118.63974692 209.48055953 116.73538404 211.78304195 114.82562733 C220.32328129 107.74995105 228.93841146 100.81589109 237.79085445 94.13422108 C237.64647945 95.2917992 237.50210445 96.44937733 237.35335445 97.64203358 C237.1656667 99.18107319 236.97817719 100.72013699 236.79085445 102.25922108 C236.69546383 103.01976795 236.6000732 103.78031483 236.50179195 104.56390858 C235.20781143 112.55749509 235.20781143 112.55749509 237.54085445 119.94672108 C240.23059142 122.6423366 240.23059142 122.6423366 243.79085445 123.13422108 C247.58281421 121.41881071 249.31534127 119.98675431 250.79085445 116.13422108 C251.24091268 113.36399471 251.60562232 110.64749489 251.8963232 107.86078358 C251.98464916 107.05941975 252.07297512 106.25805592 252.16397762 105.43240833 C252.34836011 103.74000048 252.52883039 102.04716242 252.70564938 100.35394764 C252.97679455 97.77406324 253.26478846 95.19645075 253.55452633 92.61859608 C253.73197924 90.97026813 253.90844402 89.32183345 254.0838232 87.67328358 C254.21339664 86.52456272 254.21339664 86.52456272 254.34558773 85.35263538 C254.87881123 80.09005424 255.33785501 75.4059252 252.22737789 70.83832264 C248.91451437 68.52130988 245.72809862 68.22204765 241.80647945 67.86859608 C241.03205502 67.78547169 240.25763058 67.7023473 239.45973873 67.61670399 C236.9881629 67.35605061 234.5148805 67.12034744 232.04085445 66.88422108 C230.39225655 66.71126405 228.743816 66.53680014 227.09554195 66.36078358 C225.49932717 66.19537043 223.90297612 66.03126611 222.30647945 65.86859608 C221.20605312 65.75617573 221.20605312 65.75617573 220.08339596 65.64148426 C210.96669105 64.39942056 210.96669105 64.39942056 202.72835445 67.25922108 Z " fill="#4a6cf7" transform="translate(109.20914554595947,5.865778923034668)"/>
<path d="M0 0 C14.88529585 13.17640992 24.77075801 30.44973866 26.00296021 50.5916748 C26.20359412 55.49090867 26.2465406 60.38762592 26.24560547 65.29052734 C26.25002711 67.8909429 26.28659248 70.48972166 26.32421875 73.08984375 C26.3300798 74.7552026 26.33405395 76.4205694 26.3359375 78.0859375 C26.35030853 78.85682709 26.36467957 79.62771667 26.37948608 80.42196655 C26.35181405 83.68196745 25.99846235 86.23033745 24.6378479 89.20214844 C20.05618846 93.01269961 14.95331928 92.1943594 9.18359375 92.14697266 C7.23188766 92.16011505 7.23188766 92.16011505 5.24075317 92.17352295 C1.67448257 92.19631288 -1.89106466 92.18748201 -5.45734787 92.17162752 C-9.18976539 92.15896658 -12.92212106 92.17070915 -16.65454102 92.17855835 C-22.92247639 92.18765442 -29.19011717 92.17566839 -35.45800781 92.15185547 C-42.70413476 92.12464391 -49.94955832 92.13345813 -57.19566822 92.1609875 C-63.41747718 92.18367905 -69.6390744 92.18687854 -75.86091137 92.17379415 C-79.57675392 92.16599974 -83.29226586 92.16495731 -87.00808716 92.18147659 C-91.15034629 92.19860542 -95.29139332 92.1748654 -99.43359375 92.14697266 C-100.66592743 92.15709381 -101.89826111 92.16721497 -103.16793823 92.17764282 C-111.43600982 92.07422637 -111.43600982 92.07422637 -114.88685608 89.19818115 C-116.56900923 85.53240866 -116.6797026 82.18290913 -116.62109375 78.2265625 C-116.62254898 77.42576263 -116.62400421 76.62496277 -116.62550354 75.79989624 C-116.62384652 74.10370248 -116.61230712 72.40749338 -116.59155273 70.71142578 C-116.56297863 68.16761003 -116.57087148 65.62593341 -116.58398438 63.08203125 C-116.55491895 40.73536179 -111.23167425 21.43099339 -95.640625 4.859375 C-69.12282974 -19.96938872 -28.69288512 -22.68739754 0 0 Z M-88.06640625 21.77734375 C-100.66869553 38.5713232 -99.125 54.27073283 -99.125 75.5 C-63.485 75.5 -27.845 75.5 8.875 75.5 C9.3099735 42.36014864 9.3099735 42.36014864 -6.94140625 16.59765625 C-18.62614889 5.37277826 -32.90564574 0.93123155 -48.84765625 1.22265625 C-64.51186711 1.93161963 -78.05501789 10.03360248 -88.06640625 21.77734375 Z " fill="#4a6cf7" transform="translate(301.125,414.5)"/>
<path d="M0 0 C14.94433023 12.58748382 24.42129716 29.06711467 26.53344727 48.67626953 C27.14872773 55.97694915 27.24217012 63.30219586 27.3125 70.625 C27.33030518 71.83494629 27.34811035 73.04489258 27.36645508 74.29150391 C27.36074167 80.58767982 27.23285013 85.50966085 24 91 C21.43608762 92.28195619 19.60901549 92.13456757 16.73721313 92.14717102 C15.62116196 92.15432632 14.50511078 92.16148163 13.35523987 92.16885376 C11.50997963 92.17288712 11.50997963 92.17288712 9.62744141 92.17700195 C8.33634964 92.18357315 7.04525787 92.19014435 5.71504211 92.19691467 C2.16749067 92.21432785 -1.38004731 92.22487697 -4.9276309 92.2331202 C-7.14315876 92.23826898 -9.35868241 92.24434472 -11.57420731 92.25063133 C-18.50362631 92.26968307 -25.43303464 92.28391505 -32.3624748 92.2922433 C-40.3661511 92.30202109 -48.36955124 92.32835451 -56.3731302 92.36874419 C-62.55662377 92.39888023 -68.74003806 92.41370971 -74.92360365 92.41702431 C-78.61824452 92.41937742 -82.31259034 92.42837116 -86.00715256 92.45348549 C-90.12783014 92.48104405 -94.24788857 92.47694285 -98.36865234 92.4699707 C-99.59477737 92.48278076 -100.8209024 92.49559082 -102.08418274 92.50878906 C-103.76671898 92.49837334 -103.76671898 92.49837334 -105.48324585 92.48774719 C-106.94500024 92.49132972 -106.94500024 92.49132972 -108.43628502 92.49498463 C-111.77828705 91.84973364 -112.95820507 90.68269449 -115 88 C-115.39902384 84.94407966 -115.56119225 82.25760687 -115.53125 79.203125 C-115.5350769 78.33669373 -115.53890381 77.47026245 -115.54284668 76.57757568 C-115.5455684 74.73839155 -115.53818896 72.89916888 -115.52148438 71.06005859 C-115.50038861 68.30082859 -115.52111179 65.54429676 -115.546875 62.78515625 C-115.57027747 48.81080932 -114.041704 35.31990883 -107.4375 22.75 C-107.09944336 22.09507568 -106.76138672 21.44015137 -106.41308594 20.76538086 C-97.87952997 5.06248986 -82.84331547 -6.4683006 -66 -12 C-42.9518908 -18.25187041 -19.21483153 -14.64627019 0 0 Z M-85.64990234 20.39794922 C-99.46268849 36.78845604 -98 54.51292013 -98 76 C-62.36 76 -26.72 76 10 76 C10.17318108 43.73400519 10.17318108 43.73400519 -5.79296875 18.1796875 C-6.52128906 17.46039063 -7.24960937 16.74109375 -8 16 C-8.82951172 15.13761719 -8.82951172 15.13761719 -9.67578125 14.2578125 C-20.14480779 4.23040742 -34.3717793 1.51795389 -48.29296875 1.75390625 C-62.80498727 2.71729631 -75.83141752 9.8364074 -85.64990234 20.39794922 Z " fill="#4a6cf7" transform="translate(456,414)"/>
<path d="M0 0 C0.88429688 0.75023437 1.76859375 1.50046875 2.6796875 2.2734375 C3.41960937 2.89992188 4.15953125 3.52640625 4.921875 4.171875 C17.03937403 15.346378 24.5291337 32.36898879 25.88198853 48.71824646 C25.97259353 51.17334121 26.00905832 53.62138257 26.015625 56.078125 C26.0256102 57.40772751 26.0256102 57.40772751 26.03579712 58.76419067 C26.04583496 60.61783801 26.05061692 62.47152083 26.05029297 64.32519531 C26.0547097 67.16270094 26.0912395 69.99870161 26.12890625 72.8359375 C26.13476764 74.64582806 26.13874156 76.45572593 26.140625 78.265625 C26.15499603 79.11043427 26.16936707 79.95524353 26.18417358 80.82565308 C26.17802032 81.61392487 26.17186707 82.40219666 26.16552734 83.21435547 C26.16837738 83.90367157 26.17122742 84.59298767 26.17416382 85.30319214 C25.44242745 88.21880233 23.97597277 89.37866629 21.6796875 91.2734375 C19.12155914 91.77680206 19.12155914 91.77680206 16.1763916 91.78137207 C14.49819084 91.79829102 14.49819084 91.79829102 12.78608704 91.81555176 C10.95161263 91.80340637 10.95161263 91.80340637 9.08007812 91.79101562 C7.1430024 91.80152954 7.1430024 91.80152954 5.16679382 91.81225586 C1.62746599 91.83048673 -1.91139532 91.82342306 -5.45073128 91.81073952 C-9.15511454 91.80061045 -12.85945794 91.81000493 -16.56384277 91.81628418 C-22.78465953 91.82356089 -29.00528631 91.8139724 -35.22607422 91.79492188 C-42.41758431 91.7731529 -49.6086408 91.78020427 -56.8001399 91.8022275 C-62.97521837 91.82038096 -69.1501603 91.82294014 -75.32525682 91.81247282 C-79.01311204 91.80623752 -82.70075407 91.80540304 -86.38859558 91.81861877 C-90.49957126 91.83232186 -94.60976529 91.81332867 -98.72070312 91.79101562 C-99.94368607 91.79911255 -101.16666901 91.80720947 -102.42671204 91.81555176 C-103.54551254 91.80427246 -104.66431305 91.79299316 -105.8170166 91.78137207 C-106.78892189 91.77986397 -107.76082718 91.77835587 -108.76218414 91.77680206 C-112.04756865 91.13033484 -113.23253656 89.83156399 -115.3203125 87.2734375 C-121.48947173 71.58882369 -116.73783259 42.70826332 -110.7265625 27.41796875 C-106.67680328 18.36225716 -101.2485339 11.34115329 -94.3203125 4.2734375 C-93.65515625 3.5721875 -92.99 2.8709375 -92.3046875 2.1484375 C-83.26135674 -6.68779408 -70.6370631 -12.30496408 -58.3203125 -14.7265625 C-56.61875 -15.066875 -56.61875 -15.066875 -54.8828125 -15.4140625 C-34.66494729 -17.18755945 -16.05172101 -12.8158303 0 0 Z M-85.875 19.30859375 C-100.40095258 36.92073114 -99.3203125 52.12962411 -99.3203125 75.2734375 C-63.6803125 75.2734375 -28.0403125 75.2734375 8.6796875 75.2734375 C9.17023537 43.06909566 9.17023537 43.06909566 -6.0703125 16.9609375 C-18.15967022 5.75673506 -32.10771268 0.7658189 -48.41015625 1.06640625 C-63.30534879 1.8550628 -75.72692325 8.52441307 -85.875 19.30859375 Z " fill="#4a6cf7" transform="translate(145.3203125,414.7265625)"/>
<path d="M0 0 C1.2684375 0.61875 1.2684375 0.61875 2.5625 1.25 C13.8018654 7.280879 21.0746548 16.9596314 25 29 C28.1571708 42.00337323 27.3070016 55.03640634 21 67 C13.43226267 78.80488193 3.15926324 86.74734508 -10.4375 90.3125 C-22.52701704 92.549706 -35.18565636 91.01199178 -45.78125 84.5625 C-56.42005424 77.07038434 -65.33617472 67.06742638 -68 54 C-70.40815881 38.3166128 -67.20959585 25.22478914 -58.11328125 12.32421875 C-53.5384515 6.80287249 -48.39904572 3.16584367 -42 0 C-41.21496094 -0.41378906 -40.42992187 -0.82757813 -39.62109375 -1.25390625 C-27.79550236 -6.56524385 -11.41110897 -6.00584683 0 0 Z M-45.82421875 24.2109375 C-51.05721139 31.63595853 -53.01690013 38.96675731 -52 48 C-50.00165026 57.38822027 -44.82415989 65.13087445 -36.77734375 70.4765625 C-29.10384322 74.46391418 -20.70392665 75.35652124 -12.2734375 73.3515625 C-3.0325049 70.00422778 3.6737079 63.79270703 8 55 C11.3739363 46.3241638 10.76700731 38.14175235 7.3203125 29.609375 C2.78404122 20.64419981 -4.35536816 16.0796012 -13.5625 12.6875 C-26.28738127 10.14252375 -37.53383662 14.16306537 -45.82421875 24.2109375 Z " fill="#4a6cf7" transform="translate(277,293)"/>
<path d="M0 0 C11.5877995 7.49486114 19.16646503 17.6338489 22.6796875 30.96484375 C25.32865399 45.2794511 22.20773922 58.39270013 14.3671875 70.52734375 C7.30573771 80.17260885 -3.98934403 86.78085141 -15.66796875 89.140625 C-29.51803161 90.94715494 -43.00948722 87.98844059 -54.265625 79.5546875 C-63.68365774 71.58450159 -70.50537822 60.92102977 -71.86035156 48.4296875 C-72.82350418 34.49729112 -70.48606549 22.68613137 -61.6328125 11.52734375 C-59.1953125 8.83984375 -59.1953125 8.83984375 -56.6328125 6.52734375 C-56.15585938 6.04652344 -55.67890625 5.56570313 -55.1875 5.0703125 C-40.99343944 -8.47232982 -16.53043918 -9.24625456 0 0 Z M-49.38671875 22.85546875 C-54.34892819 30.65151828 -56.4088654 37.35483696 -55.29296875 46.58984375 C-53.2372536 55.73716796 -48.55329078 63.44066807 -40.6328125 68.52734375 C-33.30054386 72.74056844 -25.97754479 73.56389143 -17.6328125 72.52734375 C-14.33771452 71.59514508 -11.56622247 70.27932141 -8.6328125 68.52734375 C-8.00761719 68.17671875 -7.38242188 67.82609375 -6.73828125 67.46484375 C0.14106397 63.14839185 4.24072067 56.24670964 6.3671875 48.52734375 C7.3947733 39.11179016 6.27501907 31.14670661 0.82421875 23.30859375 C-4.87425605 16.31916012 -11.64546843 11.81629486 -20.6328125 10.52734375 C-31.50042943 9.45839782 -42.76044173 14.05978701 -49.38671875 22.85546875 Z " fill="#4a6cf7" transform="translate(124.6328125,294.47265625)"/>
<path d="M0 0 C2.52248567 2.00238553 4.73970321 4.10965287 6.89453125 6.50390625 C7.71953125 7.39078125 8.54453125 8.27765625 9.39453125 9.19140625 C18.52878878 20.37150695 20.11422395 33.61625438 18.89453125 47.50390625 C16.5257043 60.04308605 9.2726411 71.13931588 -1.10546875 78.50390625 C-13.39198859 85.95883518 -25.99165854 88.46060383 -40.10546875 85.37890625 C-53.33278091 81.73710083 -63.13623054 74.24926575 -70.10546875 62.50390625 C-76.40789503 49.62362631 -77.99951853 37.23673704 -74.0703125 23.3125 C-69.63500947 10.40163815 -60.12326019 0.71108691 -48.10546875 -5.49609375 C-33.11086871 -12.77250278 -13.10439154 -9.420995 0 0 Z M-52.85546875 19.25390625 C-58.57793995 27.51969798 -60.34961527 35.48789839 -59.10546875 45.50390625 C-58.17327008 48.79900423 -56.85744641 51.57049628 -55.10546875 54.50390625 C-54.75484375 55.12910156 -54.40421875 55.75429688 -54.04296875 56.3984375 C-49.72651685 63.27778272 -42.82483464 67.37743942 -35.10546875 69.50390625 C-24.69232081 70.64036656 -16.18482214 68.9438033 -7.85546875 62.50390625 C-1.11725753 56.10738931 2.6927543 47.41976076 3.06640625 38.171875 C2.44117089 28.46651703 -1.87788248 20.9101759 -9.10546875 14.50390625 C-24.37428827 3.35831225 -40.01012666 6.40856416 -52.85546875 19.25390625 Z " fill="#4a6cf7" transform="translate(440.10546875,297.49609375)"/>
</svg>
