<?xml version="1.0" encoding="UTF-8"?>
<svg version="1.1" xmlns="http://www.w3.org/2000/svg" width="512" height="512">
<path d="M0 0 C168.96 0 337.92 0 512 0 C512 236.02321083 512 236.02321083 495.98046875 254.3046875 C491.5398522 258.66888809 486.4977999 261.55942719 481 264.375 C480.34765381 264.70927002 479.69530762 265.04354004 479.02319336 265.38793945 C468.68959299 270.38425003 458.40152629 270.28865717 447.19876099 270.26069641 C445.48291447 270.26371931 443.7670693 270.26760949 442.0512265 270.27228898 C437.34971936 270.28255982 432.64828857 270.28038948 427.9467752 270.27610838 C422.8710026 270.27363952 417.7952483 270.28265731 412.71948242 270.29014587 C402.78081105 270.30289031 392.8421667 270.30468689 382.90348853 270.30234561 C374.82456053 270.30056205 366.74564073 270.30231292 358.66671371 270.30657005 C357.5165588 270.30716524 356.36640389 270.30776043 355.18139579 270.30837366 C352.84480064 270.30958542 350.50820549 270.31079955 348.17161034 270.31201603 C326.26276782 270.32289054 304.3539407 270.32072947 282.44509731 270.31463119 C262.40684928 270.30946183 242.36864986 270.32071814 222.33041145 270.33972941 C201.74915295 270.359106 181.16791745 270.36736413 160.58664978 270.36360615 C149.03423264 270.36169388 137.48185687 270.36418431 125.92944717 270.37832069 C116.09503055 270.39023315 106.26068077 270.39164085 96.42626323 270.37953053 C91.41023446 270.373641 86.39432797 270.37254455 81.37830734 270.38453293 C76.78279563 270.39538852 72.18750835 270.39229215 67.59200715 270.37827124 C65.93327592 270.37562345 64.27452713 270.37799345 62.61581315 270.38600711 C44.6967525 270.46654095 28.45852255 266.36139798 15.24609375 253.49609375 C-41.37725649 190.57031844 0 84.65138505 0 0 Z M135.6875 70.4375 C133.12181972 74.33353301 132.87350718 77.58148841 132.83886719 82.18896484 C132.82925964 83.22459564 132.8196521 84.26022644 132.80975342 85.32723999 C132.80550354 86.44386017 132.80125366 87.56048035 132.796875 88.7109375 C132.79117493 89.87066071 132.78547485 91.03038391 132.77960205 92.22525024 C132.77015254 94.68482553 132.76361827 97.14441348 132.75976562 99.60400391 C132.75012669 103.32607946 132.71912986 107.04758684 132.6875 110.76953125 C132.59683435 130.69953438 133.32488901 148.08874843 147.6875 163.375 C159.27517834 174.17260936 171.65852471 178.65094117 187.35546875 178.28515625 C201.23559344 177.19914435 212.50784058 171.01861532 222 161 C229.30528937 152.22806554 234.07338132 142.35455322 234.17700195 130.85791016 C234.18983719 129.61627106 234.20267242 128.37463196 234.21589661 127.09536743 C234.22406393 125.74326987 234.23150768 124.39116777 234.23828125 123.0390625 C234.24235678 122.35516827 234.2464323 121.67127403 234.25063133 120.96665573 C234.27145018 117.34821632 234.28577111 113.72981438 234.29516602 110.11132812 C234.30623501 106.38330966 234.34065158 102.65588731 234.38033772 98.92807961 C234.40653165 96.05236737 234.41486014 93.17679683 234.41844749 90.3009758 C234.42330462 88.92709695 234.43489381 87.55322407 234.45348549 86.17946243 C234.82812004 76.20578265 234.82812004 76.20578265 230 68 C226.58015724 65.59056533 224.04864944 64.75280889 219.9375 65.0625 C216.07700315 65.74159314 213.76231044 67.15644513 211 70 C209.03048029 73.18289417 208.74167672 75.64485173 208.71289062 79.36010742 C208.69276917 80.96779243 208.69276917 80.96779243 208.67224121 82.60795593 C208.66696411 83.76213516 208.66168701 84.91631439 208.65625 86.10546875 C208.6416272 87.29924637 208.62700439 88.49302399 208.61193848 89.72297668 C208.56541329 93.54445034 208.53124797 97.36587272 208.5 101.1875 C208.45871262 106.20201104 208.40492599 111.21616533 208.34375 116.23046875 C208.3384729 117.37452682 208.3331958 118.5185849 208.32775879 119.6973114 C208.20261658 129.84308461 207.43981686 138.50934157 200 146 C193.30889561 151.00026376 186.14810819 151.94845704 178 151 C171.48636142 148.86558736 166.67262399 145.78716508 163 140 C159.64872044 132.76156792 159.58795251 125.72067293 159.62890625 117.86328125 C159.61153564 115.3222642 159.59395115 112.7812486 159.57617188 110.24023438 C159.56607653 106.26389978 159.56250938 102.28762152 159.56420898 98.3112793 C159.56064276 94.4533404 159.53332761 90.59609654 159.50390625 86.73828125 C159.51208878 85.55067703 159.5202713 84.36307281 159.52870178 83.13948059 C159.47173 76.82847698 159.38183675 72.72582212 155 68 C147.74411381 63.36858328 141.69895795 64.10109837 135.6875 70.4375 Z M268.6875 69.625 C266.19721312 73.12984821 265.46915556 76.73333778 266 81 C268.94037971 87.02396577 272.84410562 91.24230232 277.609375 95.90234375 C278.33618469 96.6249086 279.06299438 97.34747345 279.81182861 98.0919342 C282.11756111 100.38097579 284.43354076 102.6593194 286.75 104.9375 C288.32230504 106.49474589 289.89392708 108.05268169 291.46484375 109.61132812 C295.30202869 113.41557108 299.14766464 117.21110302 303 121 C299.02100754 125.78572802 294.85027246 130.25541363 290.39453125 134.59765625 C289.15140757 135.82327857 287.9085776 137.04919885 286.66601562 138.27539062 C284.73378248 140.17661353 282.79930897 142.0753777 280.85961914 143.96899414 C278.96858767 145.8175734 277.0872396 147.6755783 275.20703125 149.53515625 C274.62887161 150.09469498 274.05071198 150.6542337 273.45503235 151.23072815 C269.64338947 155.01803316 266.33481935 158.8139846 265.75 164.37890625 C266.22380249 168.51727484 266.6672688 170.57734145 269.3125 173.9375 C273.68243021 177.29116737 276.3644493 178.67626608 282 178 C287.3854485 174.92121339 291.47243888 170.7876038 295.8046875 166.390625 C296.5286673 165.66381531 297.25264709 164.93700562 297.99856567 164.18817139 C300.29547381 161.88012481 302.58530496 159.56520026 304.875 157.25 C306.4370369 155.67792514 307.9995321 154.10630551 309.5625 152.53515625 C313.38032149 148.69535848 317.19236639 144.84989911 321 141 C323.97392864 142.33478983 326.02441372 143.78837069 328.29638672 146.11694336 C328.91738251 146.74777328 329.5383783 147.37860321 330.17819214 148.02854919 C330.83868561 148.7087764 331.49917908 149.3890036 332.1796875 150.08984375 C333.59753456 151.52811477 335.01550722 152.96626197 336.43359375 154.40429688 C338.65673456 156.67089869 340.87734904 158.93990613 343.09521484 161.21166992 C345.24186645 163.40672969 347.39774743 165.59239982 349.5546875 167.77734375 C350.21113251 168.45554672 350.86757751 169.13374969 351.54391479 169.83250427 C355.08575024 173.41206721 358.19661365 176.1912551 363 178 C367.97805546 178 370.12226951 177.53639086 374.375 174.9375 C377.40871366 171.54262995 379.1360407 168.62538386 379 164 C376.87514805 157.44620909 373.16732294 153.70743486 368.234375 149.01953125 C366.69003954 147.51113387 365.14577065 146.00266834 363.6015625 144.49414062 C361.16656146 142.14032273 358.72747503 139.79084326 356.28613281 137.44360352 C353.92523942 135.16675717 351.57939889 132.87520101 349.234375 130.58203125 C348.49491638 129.88092728 347.75545776 129.1798233 346.99359131 128.45747375 C346.32249329 127.79966415 345.65139526 127.14185455 344.95996094 126.46411133 C344.36278259 125.89010086 343.76560425 125.31609039 343.15032959 124.72468567 C342 123 342 123 342.11482239 120.99900818 C343.15837538 118.6423388 344.34253585 117.33478827 346.20288086 115.55175781 C346.87705551 114.8971759 347.55123016 114.24259399 348.24583435 113.56817627 C348.97810745 112.87020935 349.71038055 112.17224243 350.46484375 111.453125 C352.00236807 109.95355033 353.53946407 108.4535364 355.07617188 106.953125 C357.5042687 104.59938021 359.93681612 102.25065575 362.37768555 99.91015625 C364.73260847 97.64614685 367.06827237 95.36359832 369.40234375 93.078125 C370.13259262 92.388255 370.86284149 91.69838501 371.61521912 90.98760986 C376.15189491 86.51882586 378.21517165 83.38054174 379 77 C377.53702956 71.83657493 375.67645325 68.70195077 371 66 C366.60471712 64.57500302 364.08492765 64.46776182 359.8527832 66.54394531 C355.28175852 69.22919464 351.78346541 72.84033693 348.09765625 76.609375 C347.01380898 77.69958954 347.01380898 77.69958954 345.9080658 78.81182861 C343.61902421 81.11756111 341.3406806 83.43354076 339.0625 85.75 C337.50525411 87.32230504 335.94731831 88.89392708 334.38867188 90.46484375 C330.58442892 94.30202869 326.78889698 98.14766464 323 102 C319.97143998 100.6469748 317.90855956 99.14348573 315.59594727 96.77539062 C314.95170303 96.12131226 314.3074588 95.46723389 313.64369202 94.79333496 C312.95818771 94.08809692 312.27268341 93.38285889 311.56640625 92.65625 C310.0984267 91.16785097 308.63032395 89.67957344 307.16210938 88.19140625 C304.85769947 85.8434798 302.55580703 83.49315042 300.2565918 81.14013672 C298.03297813 78.86823016 295.80022622 76.60561546 293.56640625 74.34375 C292.88292618 73.63851196 292.19944611 72.93327393 291.49525452 72.20666504 C286.93788141 67.51608545 286.93788141 67.51608545 281 65 C275.81311641 65 272.87416651 66.68301813 268.6875 69.625 Z " fill="#4a6cf7" transform="translate(0,200)"/>
<path d="M0 0 C1.71513383 -0.00302291 3.4302663 -0.00691309 5.14539641 -0.01159257 C9.84497294 -0.02186342 14.5444731 -0.01969306 19.24405587 -0.01541197 C24.31780259 -0.01294309 29.391531 -0.02196096 34.465271 -0.02944946 C44.40026736 -0.04219412 54.3352367 -0.04399043 64.27023987 -0.0416492 C72.3467756 -0.03986556 80.42330313 -0.04161667 88.49983788 -0.04587364 C90.22463716 -0.04676643 90.22463716 -0.04676643 91.98428088 -0.04767724 C94.3203103 -0.04888901 96.65633972 -0.05010314 98.99236914 -0.05131962 C120.89647303 -0.06219434 142.80056152 -0.06003303 164.70466628 -0.05393478 C184.73577223 -0.04876614 204.76682954 -0.06001979 224.79792587 -0.07903299 C245.37353913 -0.09841308 265.94912939 -0.10666706 286.52475184 -0.10290974 C298.07328847 -0.1009979 309.6217837 -0.1034836 321.17031288 -0.11762428 C331.00213907 -0.12954123 340.83389839 -0.13093944 350.66572551 -0.11883412 C355.67985292 -0.11294757 360.69385804 -0.11183985 365.70797729 -0.12383652 C370.30292448 -0.13470231 374.89764735 -0.13158362 379.49258407 -0.11757483 C381.1499872 -0.11492983 382.80740795 -0.11728824 384.46479378 -0.1253107 C402.81133418 -0.20791334 418.30603749 3.65487189 431.92424011 16.76460266 C460.00518285 47.49015473 447.20549011 95.23746573 447.20549011 132.26069641 C278.24549011 132.26069641 109.28549011 132.26069641 -64.79450989 132.26069641 C-64.79450989 34.23748558 -64.79450989 34.23748558 -48.77497864 15.95600891 C-44.33436208 11.59180832 -39.29230978 8.70126923 -33.79450989 5.88569641 C-32.8159906 5.38429138 -32.8159906 5.38429138 -31.81770325 4.87275696 C-21.48613553 -0.12257083 -11.20056828 -0.02796728 0 0 Z M7.20549011 70.26069641 C4.20417746 73.63717315 3.66652614 76.75383719 3.85392761 81.26850891 C4.62629264 85.64524407 7.14222963 88.37464601 10.45549011 91.13569641 C14.14825779 92.6463741 17.33161343 93.14845982 21.20549011 92.26069641 C25.50044666 89.97061216 28.33975983 86.98627344 29.83049011 82.32319641 C30.59128728 77.95070282 29.47984732 75.07574721 27.20549011 71.26069641 C24.51481556 68.42053994 22.63929576 67.39165661 18.89299011 66.26069641 C14.12699619 66.26069641 11.06921072 67.52824535 7.20549011 70.26069641 Z M223.83049011 71.51069641 C221.77166027 74.99486999 221.20549011 77.1982772 221.20549011 81.26069641 C222.47686722 85.32162446 223.92089011 88.34280732 227.42802525 90.8487711 C230.57865658 92.45039573 232.52805738 92.63994119 236.04336548 92.64837646 C237.21113525 92.6582811 238.37890503 92.66818573 239.58206177 92.6783905 C240.85441177 92.67388885 242.12676178 92.66938721 243.43766785 92.66474915 C244.79811666 92.67045462 246.15856069 92.67741957 247.51899719 92.68554688 C251.20707205 92.70347432 254.89490892 92.70231073 258.58301425 92.69660449 C261.664524 92.69351194 264.74598809 92.69960583 267.82749134 92.70564324 C275.0984678 92.71968555 282.36932675 92.71812972 289.64030457 92.70674133 C297.13567578 92.69526074 304.63068916 92.70933523 312.12601322 92.73613781 C318.56694443 92.75830567 325.00776341 92.76492975 331.44873005 92.7590614 C335.29314148 92.75569313 339.13732354 92.75809793 342.9817028 92.77531242 C346.59748871 92.79079698 350.21274519 92.78680994 353.82851028 92.76800728 C355.78347856 92.76257339 357.73847068 92.77682412 359.69338989 92.79170227 C368.25256398 92.73103753 368.25256398 92.73103753 375.20549011 88.26069641 C377.61446532 85.28962699 378.17061882 83.58616181 378.58049011 79.76069641 C378.0413674 74.7288844 376.44530321 72.40513927 372.76799011 69.01069641 C368.78748923 66.29230557 365.47897296 66.13487138 360.72238159 66.12025452 C359.60791656 66.11454437 358.49345154 66.10883423 357.34521484 66.10295105 C356.12694504 66.10183319 354.90867523 66.10071533 353.65348816 66.0995636 C352.36692322 66.09459869 351.08035828 66.08963379 349.75480652 66.08451843 C346.22782686 66.07141747 342.70086622 66.06495401 339.17386603 66.06050777 C336.9686894 66.05757338 334.76351792 66.05346789 332.55834389 66.0490036 C325.65401728 66.03533486 318.74970251 66.0256651 311.84536332 66.02180171 C303.88423734 66.01732207 295.92328315 65.99977601 287.9622094 65.97080112 C281.80240647 65.94916278 275.6426518 65.93909629 269.48281127 65.93776059 C265.806606 65.93671412 262.13056235 65.93084008 258.4543972 65.91294098 C254.35138449 65.89335158 250.24873002 65.89775781 246.14567566 65.9042511 C244.93347855 65.89503632 243.72128143 65.88582153 242.47235107 65.87632751 C235.03856412 65.91319544 229.44646711 66.19029715 223.83049011 71.51069641 Z M64.83049011 71.26069641 C61.78323778 75.01116082 61.80939009 78.58671615 62.20549011 83.26069641 C64.45754866 87.59799436 66.64409251 90.39467012 71.20549011 92.26069641 C75.09700347 92.83018617 78.25477108 92.60641242 81.95549011 91.26069641 C85.20485772 88.37236965 87.07305701 85.47626997 88.20549011 81.26069641 C88.22566697 77.21859832 87.43046049 73.84263669 84.93205261 70.61616516 C78.23218861 64.46576091 71.48210211 65.65933894 64.83049011 71.26069641 Z M122.83049011 71.26069641 C119.78323778 75.01116082 119.80939009 78.58671615 120.20549011 83.26069641 C122.45754866 87.59799436 124.64409251 90.39467012 129.20549011 92.26069641 C133.95520555 92.78844257 136.19770823 92.73606522 140.51799011 90.69819641 C143.80018818 87.7213191 144.98019589 85.51318812 146.20549011 81.26069641 C146.20549011 76.86147198 145.47220114 74.68905049 143.14299011 70.94819641 C136.39231139 64.77204354 129.86720316 65.33504332 122.83049011 71.26069641 Z " fill="#4a6cf7" transform="translate(64.79450988769531,41.73930358886719)"/>
</svg>
